<svg width="30" height="30" viewBox="0 0 30 30" fill="none" xmlns="http://www.w3.org/2000/svg">
<circle cx="15" cy="15.0004" r="11.8085" fill="#007EB2"/>
<circle opacity="0.5" cx="15" cy="15" r="15" fill="#007EB2"/>
<g clip-path="url(#clip0_23_64)">
<path d="M22.2479 13.3353V19.51C22.2479 20.263 21.6318 20.8791 20.8788 20.8791H9.92599C9.17298 20.8791 8.55688 20.263 8.55688 19.51V11.2953C8.55688 10.5423 9.17298 9.92623 9.92599 9.92623H16.84C16.7989 10.1453 16.7715 10.378 16.7715 10.6108C16.7715 11.6239 17.2165 12.5207 17.9147 13.1505L15.4024 14.7181L9.92599 11.2953V12.6644L15.4024 16.0872L19.0305 13.8145C19.4002 13.9514 19.7835 14.0335 20.1943 14.0335C20.9678 14.0335 21.6729 13.7666 22.2479 13.3353ZM18.1406 10.6108C18.1406 11.7471 19.0579 12.6644 20.1943 12.6644C21.3306 12.6644 22.2479 11.7471 22.2479 10.6108C22.2479 9.47443 21.3306 8.55713 20.1943 8.55713C19.0579 8.55713 18.1406 9.47443 18.1406 10.6108Z" fill="white"/>
</g>
<defs>
<clipPath id="clip0_23_64">
<rect width="16.4292" height="16.4292" fill="white" transform="translate(7.18781 7.18799)"/>
</clipPath>
</defs>
</svg>
