<svg width="22" height="27" viewBox="0 0 22 27" fill="none" xmlns="http://www.w3.org/2000/svg">
<g clip-path="url(#clip0_650_911)">
<path d="M7.21258 17.0359L8.48118 16.7493C8.50747 16.7428 8.55348 16.734 8.60606 16.7165C9.33348 16.5262 9.77826 15.8022 9.60736 15.0825L9.60298 15.0606C9.56135 14.8944 9.48685 14.7369 9.38607 14.599C9.24365 14.4219 9.06837 14.2753 8.86899 14.1637C8.63455 14.0325 8.38696 13.9209 8.1328 13.8312L6.74151 13.3325C5.96151 13.0481 5.17931 12.7703 4.39055 12.5013C3.88004 12.3241 3.44622 12.1666 3.07156 12.0528C2.99925 12.0331 2.92914 12.0113 2.85903 11.9894C2.40549 11.8538 2.08341 11.7969 1.81391 11.7947C1.63425 11.7881 1.45459 11.821 1.28807 11.8888C1.11498 11.9631 0.957225 12.0725 0.830146 12.2081C0.766606 12.2781 0.707449 12.3525 0.650482 12.4291C0.540931 12.5931 0.453291 12.7681 0.383178 12.9497C0.122447 13.6956 -0.00682273 14.4809 -0.000249681 15.2706C0.00413235 15.9837 0.0238515 16.9003 0.424808 17.5215C0.521212 17.6812 0.650482 17.819 0.806045 17.9262C1.09088 18.1187 1.3779 18.1449 1.68026 18.1668C2.12942 18.1974 2.56105 18.0903 2.99487 17.9918L7.21039 17.0381H7.21258V17.0359ZM21.3687 10.4363C21.0226 9.72316 20.5559 9.07348 19.9906 8.5113C19.9183 8.43911 19.8394 8.37349 19.7561 8.31443C19.6795 8.25755 19.6006 8.20506 19.5173 8.15693C19.4319 8.11099 19.3464 8.06943 19.2566 8.03443C19.0813 7.96662 18.8929 7.936 18.7023 7.94475C18.5226 7.95568 18.3451 8.00381 18.1852 8.08693C17.9442 8.20506 17.6813 8.39537 17.3329 8.71036C17.2847 8.7563 17.2255 8.81099 17.1707 8.85911C16.8837 9.12379 16.5638 9.44973 16.1848 9.83035C15.5976 10.4122 15.0192 10.9985 14.4429 11.5891L13.4132 12.6347C13.2247 12.825 13.0538 13.0328 12.9005 13.2516C12.769 13.4375 12.677 13.6453 12.6288 13.8662C12.6003 14.0347 12.6047 14.2075 12.6419 14.3759L12.6463 14.3978C12.815 15.1175 13.5359 15.5768 14.2742 15.4368C14.318 15.4303 14.3597 15.4237 14.4013 15.4128L19.8876 14.1703C20.3214 14.0719 20.7596 13.9822 21.1474 13.7612C21.4082 13.6147 21.6558 13.4681 21.8267 13.1728C21.9165 13.0109 21.9713 12.8294 21.9866 12.6456C22.0721 11.9128 21.6799 11.0816 21.3665 10.4385L21.3687 10.4363ZM11.5486 12.6959C11.9452 12.2059 11.9452 11.4775 11.9802 10.8803C12.1007 8.88755 12.2256 6.89476 12.3264 4.90197C12.3637 4.14729 12.4469 3.40136 12.4009 2.64012C12.3637 2.01231 12.3593 1.29264 11.9539 0.776391C11.2419 -0.131411 9.7191 -0.0570365 8.68056 0.0851494C8.36067 0.128899 8.04297 0.187961 7.72747 0.260147C7.41196 0.334522 7.09864 0.415458 6.7919 0.511707C5.79499 0.831078 4.39274 1.41951 4.1583 2.54387C4.02465 3.18043 4.34235 3.83011 4.58555 4.41197C4.88353 5.11415 5.29106 5.74852 5.66134 6.41133C6.64291 8.15912 7.64202 9.89816 8.63674 11.6394C8.93472 12.1578 9.25899 12.8163 9.83522 13.0853C9.87466 13.1006 9.91191 13.1159 9.95135 13.1291C10.2099 13.2253 10.4925 13.2428 10.7598 13.1816L10.808 13.1706C11.0578 13.1028 11.2813 12.9716 11.4566 12.7878C11.4894 12.7572 11.5179 12.7288 11.5486 12.6959ZM11.0731 18.029C10.7555 17.5893 10.1858 17.4012 9.65994 17.5631C9.60079 17.5828 9.54163 17.6068 9.48466 17.6331C9.39702 17.6768 9.31376 17.7271 9.23489 17.7862C9.0114 17.959 8.80983 18.1603 8.63893 18.3834C8.59511 18.4381 8.55348 18.5102 8.50089 18.5584L7.61792 19.7462C7.11836 20.4134 6.62319 21.0805 6.13679 21.7586C5.8169 22.1961 5.54083 22.568 5.32173 22.8939C5.2801 22.9552 5.23847 23.023 5.19903 23.0799C4.93611 23.4758 4.78931 23.7646 4.71263 24.0227C4.65566 24.1933 4.63813 24.3749 4.66004 24.5542C4.68414 24.7402 4.74768 24.9195 4.84847 25.0792C4.90105 25.1602 4.95802 25.2367 5.01937 25.3111C5.15083 25.4599 5.29982 25.5933 5.46196 25.7114C6.07106 26.127 6.73713 26.4245 7.43825 26.6564C8.02325 26.8467 8.62797 26.9605 9.24146 26.9933C9.34663 26.9977 9.4518 26.9955 9.55477 26.9867C9.65118 26.978 9.74758 26.9648 9.8418 26.9473C9.93601 26.9255 10.0302 26.8992 10.1222 26.8664C10.3019 26.8008 10.464 26.698 10.6021 26.5667C10.7313 26.4398 10.8321 26.2867 10.8935 26.1183C10.9965 25.8689 11.0622 25.5539 11.1082 25.0836C11.1104 25.0158 11.1214 24.937 11.1279 24.8649C11.163 24.4755 11.1783 24.0161 11.2024 23.478C11.2462 22.6511 11.2791 21.8265 11.3054 20.9996L11.3624 19.5296C11.3755 19.1927 11.3624 18.8165 11.2681 18.4796C11.2265 18.3178 11.1586 18.1646 11.0666 18.0224L11.0731 18.029ZM21.0335 20.328C20.8495 20.129 20.5887 19.9321 20.1768 19.6893C20.1177 19.6565 20.0476 19.6127 19.984 19.5755C19.6422 19.3721 19.2281 19.1621 18.7461 18.904C18.0055 18.5037 17.265 18.1165 16.5156 17.7315L15.1945 17.0446C15.1265 17.025 15.0564 16.9768 14.9907 16.9462C14.7365 16.8193 14.467 16.7253 14.1866 16.6662C14.0902 16.6487 13.9938 16.6378 13.8952 16.6356C13.8316 16.6356 13.7681 16.64 13.7046 16.6465C13.1612 16.7296 12.7339 17.1431 12.6441 17.6746C12.6244 17.8387 12.631 18.0071 12.6638 18.169C12.7274 18.5146 12.8851 18.8559 13.0473 19.1534L13.7528 20.4505C14.1471 21.1812 14.5437 21.9096 14.9512 22.6336C15.2142 23.1061 15.4333 23.5108 15.6392 23.8455C15.6787 23.9089 15.7225 23.9767 15.7554 24.0358C16.0051 24.4383 16.2045 24.6921 16.4083 24.8758C16.6822 25.1339 17.059 25.2586 17.4359 25.2149C17.5323 25.2039 17.6287 25.1864 17.7251 25.1645C17.9201 25.1142 18.1085 25.0399 18.286 24.948C18.8228 24.6527 19.3179 24.2917 19.7561 23.8696C20.2842 23.3599 20.7509 22.8043 21.1146 22.1699C21.165 22.0802 21.2088 21.9861 21.246 21.8899C21.2811 21.8002 21.3096 21.7105 21.3337 21.6187C21.3556 21.5246 21.3709 21.4305 21.3819 21.3365C21.3994 21.1505 21.3775 20.9624 21.3183 20.7852C21.2592 20.6146 21.1606 20.4593 21.0335 20.3302V20.328Z" fill="#007EB2"/>
</g>
<defs>
<clipPath id="clip0_650_911">
<rect width="22" height="27" fill="white"/>
</clipPath>
</defs>
</svg>
