<svg width="22" height="27" viewBox="0 0 22 27" fill="none" xmlns="http://www.w3.org/2000/svg">
<g clip-path="url(#clip0_650_900)">
<path d="M7.21282 17.0359L8.48142 16.7493C8.50771 16.7428 8.55372 16.734 8.60631 16.7165C9.33372 16.5262 9.7785 15.8022 9.6076 15.0825L9.60322 15.0606C9.56159 14.8944 9.4871 14.7369 9.38631 14.599C9.24389 14.4219 9.06861 14.2753 8.86923 14.1637C8.63479 14.0325 8.38721 13.9209 8.13305 13.8312L6.74175 13.3325C5.96175 13.0481 5.17956 12.7703 4.39079 12.5013C3.88029 12.3241 3.44646 12.1666 3.0718 12.0528C2.9995 12.0331 2.92938 12.0113 2.85927 11.9894C2.40573 11.8538 2.08365 11.7969 1.81416 11.7947C1.63449 11.7881 1.45483 11.821 1.28831 11.8888C1.11522 11.9631 0.957469 12.0725 0.83039 12.2081C0.76685 12.2781 0.707693 12.3525 0.650726 12.4291C0.541176 12.5931 0.453535 12.7681 0.383422 12.9497C0.122691 13.6956 -0.00657859 14.4809 -5.54041e-06 15.2706C0.00437649 15.9837 0.0240956 16.9003 0.425052 17.5215C0.521456 17.6812 0.650726 17.819 0.806289 17.9262C1.09112 18.1187 1.37814 18.1449 1.6805 18.1668C2.12966 18.1974 2.56129 18.0903 2.99511 17.9918L7.21063 17.0381H7.21282V17.0359ZM21.369 10.4363C21.0228 9.72316 20.5561 9.07348 19.9908 8.5113C19.9185 8.43911 19.8397 8.37349 19.7564 8.31443C19.6797 8.25755 19.6008 8.20506 19.5176 8.15693C19.4321 8.11099 19.3467 8.06943 19.2568 8.03443C19.0816 7.96662 18.8931 7.936 18.7025 7.94475C18.5229 7.95568 18.3454 8.00381 18.1854 8.08693C17.9444 8.20506 17.6815 8.39537 17.3331 8.71036C17.2849 8.7563 17.2258 8.81099 17.171 8.85911C16.884 9.12379 16.5641 9.44973 16.185 9.83035C15.5978 10.4122 15.0194 10.9985 14.4432 11.5891L13.4134 12.6347C13.225 12.825 13.0541 13.0328 12.9007 13.2516C12.7692 13.4375 12.6772 13.6453 12.629 13.8662C12.6005 14.0347 12.6049 14.2075 12.6422 14.3759L12.6465 14.3978C12.8153 15.1175 13.5361 15.5768 14.2745 15.4368C14.3183 15.4303 14.3599 15.4237 14.4015 15.4128L19.8879 14.1703C20.3217 14.0719 20.7599 13.9822 21.1477 13.7612C21.4084 13.6147 21.656 13.4681 21.8269 13.1728C21.9167 13.0109 21.9715 12.8294 21.9868 12.6456C22.0723 11.9128 21.6801 11.0816 21.3668 10.4385L21.369 10.4363ZM11.5488 12.6959C11.9454 12.2059 11.9454 11.4775 11.9805 10.8803C12.101 8.88755 12.2259 6.89476 12.3267 4.90197C12.3639 4.14729 12.4472 3.40136 12.4011 2.64012C12.3639 2.01231 12.3595 1.29264 11.9542 0.776391C11.2421 -0.131411 9.71934 -0.0570365 8.6808 0.0851494C8.36091 0.128899 8.04322 0.187961 7.72771 0.260147C7.4122 0.334522 7.09889 0.415458 6.79215 0.511707C5.79523 0.831078 4.39298 1.41951 4.15854 2.54387C4.02489 3.18043 4.34259 3.83011 4.58579 4.41197C4.88377 5.11415 5.2913 5.74852 5.66158 6.41133C6.64316 8.15912 7.64226 9.89816 8.63698 11.6394C8.93496 12.1578 9.25923 12.8163 9.83547 13.0853C9.87491 13.1006 9.91215 13.1159 9.95159 13.1291C10.2101 13.2253 10.4928 13.2428 10.7601 13.1816L10.8083 13.1706C11.0581 13.1028 11.2815 12.9716 11.4568 12.7878C11.4897 12.7572 11.5182 12.7288 11.5488 12.6959ZM11.0734 18.029C10.7557 17.5893 10.186 17.4012 9.66019 17.5631C9.60103 17.5828 9.54187 17.6068 9.48491 17.6331C9.39726 17.6768 9.31401 17.7271 9.23513 17.7862C9.01165 17.959 8.81007 18.1603 8.63917 18.3834C8.59535 18.4381 8.55372 18.5102 8.50114 18.5584L7.61816 19.7462C7.11861 20.4134 6.62344 21.0805 6.13703 21.7586C5.81714 22.1961 5.54108 22.568 5.32197 22.8939C5.28034 22.9552 5.23872 23.023 5.19928 23.0799C4.93636 23.4758 4.78956 23.7646 4.71287 24.0227C4.6559 24.1933 4.63838 24.3749 4.66029 24.5542C4.68439 24.7402 4.74793 24.9195 4.84871 25.0792C4.9013 25.1602 4.95827 25.2367 5.01961 25.3111C5.15107 25.4599 5.30006 25.5933 5.4622 25.7114C6.0713 26.127 6.73737 26.4245 7.4385 26.6564C8.0235 26.8467 8.62822 26.9605 9.2417 26.9933C9.34687 26.9977 9.45204 26.9955 9.55502 26.9867C9.65142 26.978 9.74783 26.9648 9.84204 26.9473C9.93625 26.9255 10.0305 26.8992 10.1225 26.8664C10.3022 26.8008 10.4643 26.698 10.6023 26.5667C10.7316 26.4398 10.8324 26.2867 10.8937 26.1183C10.9967 25.8689 11.0624 25.5539 11.1084 25.0836C11.1106 25.0158 11.1216 24.937 11.1282 24.8649C11.1632 24.4755 11.1786 24.0161 11.2027 23.478C11.2465 22.6511 11.2793 21.8265 11.3056 20.9996L11.3626 19.5296C11.3758 19.1927 11.3626 18.8165 11.2684 18.4796C11.2268 18.3178 11.1588 18.1646 11.0668 18.0224L11.0734 18.029ZM21.0338 20.328C20.8497 20.129 20.589 19.9321 20.1771 19.6893C20.1179 19.6565 20.0478 19.6127 19.9843 19.5755C19.6425 19.3721 19.2284 19.1621 18.7463 18.904C18.0058 18.5037 17.2652 18.1165 16.5159 17.7315L15.1947 17.0446C15.1268 17.025 15.0567 16.9768 14.9909 16.9462C14.7368 16.8193 14.4673 16.7253 14.1868 16.6662C14.0904 16.6487 13.994 16.6378 13.8954 16.6356C13.8319 16.6356 13.7683 16.64 13.7048 16.6465C13.1614 16.7296 12.7342 17.1431 12.6444 17.6746C12.6246 17.8387 12.6312 18.0071 12.6641 18.169C12.7276 18.5146 12.8854 18.8559 13.0475 19.1534L13.753 20.4505C14.1474 21.1812 14.544 21.9096 14.9515 22.6336C15.2144 23.1061 15.4335 23.5108 15.6395 23.8455C15.6789 23.9089 15.7227 23.9767 15.7556 24.0358C16.0054 24.4383 16.2048 24.6921 16.4085 24.8758C16.6824 25.1339 17.0593 25.2586 17.4361 25.2149C17.5325 25.2039 17.6289 25.1864 17.7253 25.1645C17.9203 25.1142 18.1087 25.0399 18.2862 24.948C18.823 24.6527 19.3182 24.2917 19.7564 23.8696C20.2844 23.3599 20.7511 22.8043 21.1148 22.1699C21.1652 22.0802 21.209 21.9861 21.2463 21.8899C21.2813 21.8002 21.3098 21.7105 21.3339 21.6187C21.3558 21.5246 21.3712 21.4305 21.3821 21.3365C21.3997 21.1505 21.3777 20.9624 21.3186 20.7852C21.2594 20.6146 21.1608 20.4593 21.0338 20.3302V20.328Z" fill="white"/>
</g>
<defs>
<clipPath id="clip0_650_900">
<rect width="22" height="27" fill="white"/>
</clipPath>
</defs>
</svg>
