<svg width="122" height="88" viewBox="0 0 122 88" fill="none" xmlns="http://www.w3.org/2000/svg">
<path d="M0.446329 22.2889C0.390328 20.8009 0.325484 19.3158 0.260641 17.8278C1.2834 17.876 2.30027 17.9151 3.31124 17.9483C4.32221 17.9844 5.33907 17.9995 6.36183 17.9995C7.38459 17.9995 8.39556 17.9814 9.39769 17.9483C10.3969 17.9151 11.4108 17.873 12.4335 17.8278C12.3658 18.1772 12.3304 18.5236 12.3304 18.873C12.3304 19.2224 12.3628 19.5689 12.4335 19.9183C11.7055 19.8731 11.0394 19.8249 10.4381 19.7797C9.83686 19.7345 9.19726 19.6863 8.5282 19.6412C7.85618 19.596 7.12522 19.5538 6.32941 19.5177C5.5336 19.4845 4.57863 19.4664 3.4645 19.4664C3.44092 20.2105 3.4144 20.9183 3.37903 21.5931C3.34366 22.2678 3.32892 23.033 3.32892 23.8945C3.32892 24.8011 3.33482 25.6837 3.34661 26.5422C3.35839 27.4007 3.36429 28.0514 3.36429 28.4942C4.36347 28.4942 5.26244 28.4821 6.05824 28.458C6.85405 28.4339 7.58207 28.4068 8.23935 28.3707C8.89663 28.3375 9.50674 28.3014 10.0638 28.2652C10.6209 28.2291 11.1485 28.1899 11.6495 28.1417C11.5817 28.4911 11.5464 28.8496 11.5464 29.2231C11.5464 29.5726 11.5788 29.919 11.6495 30.2684C11.0571 30.1991 10.3703 30.1419 9.58632 30.0937C8.80231 30.0485 8.01829 30.0184 7.23427 30.0063C6.45025 29.9943 5.71045 29.9822 5.0178 29.9702C4.32515 29.9581 3.77398 29.9521 3.36429 29.9521C3.36429 30.1599 3.35839 30.3889 3.34661 30.6329C3.33482 30.8769 3.32892 31.1841 3.32892 31.5576V35.0067C3.32892 36.332 3.33482 37.4225 3.34661 38.284C3.35839 39.1425 3.37608 39.7931 3.39671 40.2359H5.78413C6.64773 40.2359 7.49365 40.2178 8.32482 40.1847C9.15305 40.1486 9.94002 40.1034 10.6769 40.0462C11.4137 39.9889 12.0592 39.9016 12.6045 39.7841C12.5573 39.9468 12.5308 40.1275 12.519 40.3233C12.5072 40.5191 12.5013 40.6998 12.5013 40.8625C12.5013 41.236 12.5367 41.5372 12.6045 41.7692C11.5817 41.721 10.5619 41.6999 9.55096 41.6999H3.36134C2.33858 41.6999 1.30403 41.724 0.257693 41.7692C0.325484 40.2841 0.38738 38.8021 0.443382 37.3261C0.499383 35.8501 0.528857 34.347 0.528857 32.8137V26.8194C0.528857 25.2861 0.499383 23.777 0.443382 22.2889H0.446329Z" fill="#007EB2"/>
<path d="M29.1868 22.3401C29.1308 20.8641 29.0659 19.361 29.0011 17.8278C29.2958 17.876 29.5817 17.9151 29.8529 17.9483C30.124 17.9844 30.3982 17.9995 30.6723 17.9995C30.9464 17.9995 31.2175 17.9814 31.4917 17.9483C31.7658 17.9151 32.0487 17.873 32.3435 17.8278C32.2757 19.361 32.2138 20.8641 32.1548 22.3401C32.0988 23.8161 32.0694 25.3192 32.0694 26.8525C32.0694 29.7804 32.0811 32.3197 32.1047 34.4675C32.1283 36.6152 32.1489 38.54 32.1725 40.2359C33.7877 40.2359 35.3322 40.2178 36.8088 40.1847C38.2855 40.1486 39.8771 40.016 41.5837 39.7841C41.4687 40.2028 41.4127 40.5522 41.4127 40.8293C41.4127 41.0854 41.4687 41.3987 41.5837 41.7692C40.5373 41.721 39.491 41.6999 38.4447 41.6999H32.1519C31.1409 41.6999 30.0887 41.724 28.9981 41.7692C29.0659 40.3293 29.1278 38.8654 29.1838 37.3773C29.2398 35.8923 29.2693 34.3801 29.2693 32.8469V26.8525C29.2693 25.3192 29.2398 23.8161 29.1838 22.3401H29.1868Z" fill="#007EB2"/>
<path d="M83.8234 19.6412C83.2309 19.6412 82.612 19.6472 81.9665 19.6592C81.318 19.6713 80.6696 19.6954 80.0212 19.7285C79.3727 19.7647 78.7479 19.8038 78.1466 19.852C77.5453 19.9002 77.003 19.9574 76.5255 20.0267C76.6405 19.608 76.6965 19.2375 76.6965 18.9122C76.6965 18.6561 76.6405 18.2977 76.5255 17.8308C78.0258 17.879 79.4936 17.9181 80.9231 17.9513C82.3555 17.9874 83.8204 18.0025 85.3207 18.0025C86.8209 18.0025 88.2887 17.9844 89.7212 17.9513C91.1536 17.9181 92.6185 17.876 94.1188 17.8308C94.0038 18.2947 93.9478 18.6682 93.9478 18.9453C93.9478 19.2465 94.0038 19.608 94.1188 20.0267C93.6413 19.9574 93.1019 19.9002 92.4977 19.852C91.8964 19.8068 91.2715 19.7647 90.6231 19.7285C89.9747 19.6954 89.3262 19.6713 88.6778 19.6592C88.0293 19.6472 87.4104 19.6412 86.8209 19.6412C86.7531 22.0359 86.7177 24.4397 86.7177 26.8555V32.8499C86.7177 34.3831 86.7472 35.8953 86.8032 37.3803C86.8592 38.8684 86.9241 40.3323 86.9919 41.7722C86.4702 41.724 85.9131 41.7029 85.3207 41.7029C84.7282 41.7029 84.1741 41.727 83.6495 41.7722C83.7173 40.3323 83.7792 38.8684 83.8352 37.3803C83.8912 35.8953 83.9206 34.3831 83.9206 32.8499V26.8555C83.9206 24.4397 83.8853 22.0359 83.8175 19.6412H83.8234Z" fill="#007EB2"/>
<path d="M109.752 22.2889C109.696 20.8009 109.631 19.3158 109.566 17.8278C110.589 17.876 111.606 17.9151 112.617 17.9483C113.628 17.9844 114.645 17.9995 115.667 17.9995C116.69 17.9995 117.701 17.9814 118.703 17.9483C119.702 17.9151 120.716 17.873 121.739 17.8278C121.671 18.1772 121.636 18.5236 121.636 18.873C121.636 19.2224 121.668 19.5689 121.739 19.9183C121.011 19.8731 120.345 19.8249 119.744 19.7797C119.142 19.7345 118.503 19.6863 117.834 19.6412C117.162 19.596 116.431 19.5538 115.635 19.5177C114.839 19.4845 113.884 19.4664 112.77 19.4664C112.747 20.2105 112.72 20.9183 112.685 21.5931C112.649 22.2678 112.635 23.033 112.635 23.8945C112.635 24.8011 112.64 25.6837 112.652 26.5422C112.664 27.4007 112.67 28.0514 112.67 28.4942C113.669 28.4942 114.568 28.4821 115.364 28.458C116.16 28.4339 116.888 28.4068 117.545 28.3707C118.202 28.3375 118.812 28.3014 119.369 28.2652C119.926 28.2291 120.454 28.1899 120.955 28.1417C120.887 28.4911 120.852 28.8496 120.852 29.2231C120.852 29.5726 120.884 29.919 120.955 30.2684C120.363 30.1991 119.676 30.1419 118.892 30.0937C118.108 30.0485 117.324 30.0184 116.54 30.0063C115.756 29.9943 115.016 29.9822 114.323 29.9702C113.631 29.9581 113.08 29.9521 112.67 29.9521C112.67 30.1599 112.664 30.3889 112.652 30.6329C112.64 30.8769 112.635 31.1841 112.635 31.5576V35.0067C112.635 36.332 112.64 37.4225 112.652 38.284C112.664 39.1425 112.682 39.7931 112.702 40.2359H115.09C115.953 40.2359 116.799 40.2178 117.63 40.1847C118.459 40.1486 119.246 40.1034 119.982 40.0462C120.719 39.9889 121.365 39.9016 121.91 39.7841C121.863 39.9468 121.836 40.1275 121.825 40.3233C121.813 40.5191 121.807 40.6998 121.807 40.8625C121.807 41.236 121.842 41.5372 121.91 41.7692C120.887 41.721 119.868 41.6999 118.857 41.6999H112.667C111.644 41.6999 110.61 41.724 109.563 41.7692C109.631 40.2841 109.693 38.8021 109.749 37.3261C109.805 35.8501 109.834 34.347 109.834 32.8137V26.8194C109.834 25.2861 109.805 23.777 109.749 22.2889H109.752Z" fill="#007EB2"/>
<path d="M0.0985318 56.5172C0.0985318 56.0201 0.0896895 55.5352 0.0690575 55.0562C0.0513728 54.5803 0.0307408 54.0923 0.00716132 53.5983C0.287168 53.6133 0.564227 53.6254 0.841285 53.6374C1.1154 53.6495 1.39246 53.6555 1.67246 53.6555C1.95247 53.6555 2.22953 53.6465 2.50659 53.6284C2.7807 53.6103 3.05776 53.6013 3.33776 53.6013C3.9862 53.6013 4.53737 53.6887 4.99717 53.8604C5.45697 54.0321 5.83424 54.2791 6.12898 54.5984C6.42373 54.9177 6.63889 55.3092 6.77447 55.7701C6.91005 56.231 6.97784 56.7521 6.97784 57.3305C6.97784 58.0805 6.8511 58.7161 6.59762 59.2312C6.34415 59.7463 6.01993 60.162 5.62792 60.4753C5.23591 60.7915 4.79969 61.0145 4.32515 61.147C3.85062 61.2795 3.39671 61.3458 2.96344 61.3458C2.71291 61.3458 2.46827 61.3428 2.22658 61.3338C1.98194 61.3247 1.73731 61.3217 1.48677 61.3217H0.746967C0.505278 61.3217 0.257693 61.3307 0.00716132 61.3458C0.0277934 60.8789 0.0484254 60.406 0.0690575 59.924C0.0867421 59.4421 0.0985318 58.9541 0.0985318 58.4601V56.5172ZM1.00045 58.457C1.00045 59.2673 1.02403 60.0656 1.06529 60.8458C1.2215 60.8819 1.43077 60.912 1.69309 60.9301C1.95836 60.9482 2.22953 60.9572 2.50953 60.9572C2.91333 60.9572 3.31713 60.909 3.72388 60.8096C4.12768 60.7132 4.49021 60.5295 4.81148 60.2584C5.1298 59.9873 5.39212 59.6168 5.59255 59.1469C5.79592 58.6769 5.89614 58.0715 5.89614 57.3275C5.89614 56.6738 5.81656 56.1376 5.65739 55.7159C5.50118 55.2942 5.28307 54.9628 5.00601 54.7188C4.72895 54.4748 4.40179 54.3062 4.01862 54.2128C3.63545 54.1194 3.21692 54.0712 2.76007 54.0712C2.42995 54.0712 2.12047 54.0833 1.83457 54.1043C1.54867 54.1254 1.2893 54.1525 1.06234 54.1827C1.04171 54.5441 1.02403 54.9207 1.01518 55.3153C1.00339 55.7099 0.997499 56.1105 0.997499 56.5172V58.457H1.00045Z" fill="#007EB2"/>
<path d="M12.2891 55.0412C12.2714 54.5592 12.2508 54.0802 12.2272 53.5983C12.5573 53.6133 12.8875 53.6254 13.2146 53.6374C13.5418 53.6495 13.8689 53.6555 14.202 53.6555C14.5351 53.6555 14.8593 53.6495 15.1835 53.6374C15.5077 53.6254 15.8349 53.6133 16.165 53.5983C16.1444 53.7097 16.1326 53.8242 16.1326 53.9357C16.1326 54.0471 16.1444 54.1616 16.165 54.273C15.9292 54.258 15.714 54.2429 15.5195 54.2278C15.325 54.2128 15.1187 54.1977 14.9005 54.1827C14.6824 54.1676 14.4466 54.1556 14.1902 54.1435C13.9308 54.1315 13.6243 54.1284 13.2647 54.1284C13.2559 54.3694 13.247 54.5984 13.2352 54.8152C13.2235 55.0321 13.2205 55.2821 13.2205 55.5593C13.2205 55.8514 13.2205 56.1376 13.2264 56.4147C13.2294 56.6919 13.2323 56.9027 13.2323 57.0443C13.5565 57.0443 13.8454 57.0413 14.1047 57.0323C14.3641 57.0232 14.597 57.0142 14.8092 57.0051C15.0243 56.9931 15.2189 56.981 15.4016 56.972C15.5814 56.96 15.7524 56.9479 15.9145 56.9328C15.8909 57.0443 15.882 57.1618 15.882 57.2823C15.882 57.3937 15.8938 57.5082 15.9145 57.6196C15.7229 57.5955 15.4989 57.5775 15.2454 57.5624C14.9919 57.5473 14.7384 57.5383 14.485 57.5353C14.2315 57.5323 13.9927 57.5263 13.7687 57.5233C13.5447 57.5202 13.3649 57.5172 13.2352 57.5172C13.2352 57.5865 13.2352 57.6588 13.2294 57.7371C13.2235 57.8154 13.2235 57.9148 13.2235 58.0353V59.1499C13.2235 59.5776 13.2235 59.93 13.2294 60.2102C13.2323 60.4873 13.2382 60.6982 13.2441 60.8428H14.0163C14.2963 60.8428 14.5704 60.8367 14.8387 60.8247C15.1069 60.8126 15.3603 60.7976 15.5991 60.7795C15.8378 60.7614 16.0471 60.7313 16.221 60.6952C16.2063 60.7464 16.1974 60.8066 16.1945 60.8699C16.1915 60.9331 16.1886 60.9904 16.1886 61.0446C16.1886 61.1651 16.2004 61.2615 16.221 61.3368C15.8909 61.3217 15.5608 61.3127 15.2336 61.3127H13.2323C12.9022 61.3127 12.5662 61.3217 12.2302 61.3368C12.2508 60.8548 12.2714 60.3759 12.2921 59.8999C12.3098 59.424 12.3186 58.936 12.3186 58.439V56.4991C12.3186 56.0021 12.3098 55.5141 12.2921 55.0351L12.2891 55.0412Z" fill="#007EB2"/>
<path d="M24.9778 58.4149C24.0229 57.3666 23.0649 56.3244 22.11 55.2882C22.1011 55.499 22.0952 55.7822 22.0864 56.1346C22.0805 56.487 22.0746 56.969 22.0746 57.5775C22.0746 57.7371 22.0746 57.9299 22.0805 58.1649C22.0834 58.3968 22.0893 58.6408 22.0923 58.8968C22.0952 59.1529 22.1011 59.4119 22.11 59.674C22.1159 59.9361 22.1247 60.1801 22.1306 60.406C22.1365 60.6319 22.1453 60.8277 22.1512 60.9964C22.1601 61.1651 22.166 61.2795 22.1748 61.3398C22.0569 61.3247 21.9272 61.3157 21.7887 61.3157C21.6502 61.3157 21.5058 61.3247 21.382 61.3398C21.3967 61.2645 21.4144 61.1259 21.4321 60.9211C21.4497 60.7193 21.4674 60.4753 21.4822 60.1951C21.4969 59.912 21.5146 59.6077 21.5323 59.2764C21.55 58.945 21.5647 58.6167 21.5765 58.2854C21.5883 57.954 21.5971 57.6317 21.606 57.3154C21.6119 56.9991 21.6178 56.719 21.6178 56.472C21.6178 55.749 21.6178 55.1315 21.6119 54.6104C21.6089 54.0923 21.5971 53.7037 21.5824 53.4507H21.7592C22.2072 53.9477 22.6877 54.4779 23.1976 55.0442C23.7075 55.6105 24.2144 56.1707 24.7185 56.722C25.2225 57.2732 25.6999 57.7974 26.1509 58.2884C26.6019 58.7794 26.9968 59.1981 27.3358 59.5445V58.0112C27.3358 57.222 27.3299 56.4539 27.3181 55.7069C27.3063 54.9598 27.2827 54.255 27.2474 53.5923C27.3947 53.6284 27.5185 53.6495 27.6217 53.6495C27.7101 53.6495 27.828 53.6314 27.9754 53.5923C27.9606 53.7579 27.9429 54.0049 27.9253 54.3363C27.9076 54.6676 27.8899 55.0201 27.8693 55.3966C27.8516 55.7731 27.8339 56.1406 27.8192 56.5021C27.8044 56.8636 27.7985 57.1527 27.7985 57.3696V58.0474C27.7985 58.3034 27.7985 58.5715 27.8044 58.8486C27.8074 59.1258 27.8103 59.4059 27.8162 59.6891C27.8192 59.9722 27.8221 60.2343 27.828 60.4783C27.8309 60.7223 27.8339 60.9361 27.8339 61.1139V61.4874H27.6806C26.8347 60.4873 25.9357 59.4631 24.9778 58.4149Z" fill="#007EB2"/>
<path d="M35.1907 54.1827C34.9991 54.1827 34.7987 54.1827 34.5894 54.1887C34.3801 54.1917 34.1709 54.2007 33.9616 54.2128C33.7523 54.2248 33.549 54.2369 33.3544 54.2519C33.1599 54.267 32.9831 54.2851 32.8298 54.3092C32.8652 54.1736 32.8858 54.0531 32.8858 53.9477C32.8858 53.8664 32.8681 53.7489 32.8298 53.5983C33.3132 53.6133 33.7877 53.6254 34.2505 53.6374C34.7132 53.6495 35.1877 53.6555 35.6741 53.6555C36.1604 53.6555 36.6349 53.6495 37.0977 53.6374C37.5604 53.6254 38.035 53.6133 38.5213 53.5983C38.483 53.7489 38.4653 53.8694 38.4653 53.9598C38.4653 54.0561 38.483 54.1736 38.5213 54.3092C38.3651 54.2851 38.1912 54.267 37.9967 54.2519C37.8021 54.2369 37.5987 54.2248 37.3895 54.2128C37.1802 54.2007 36.9709 54.1947 36.7617 54.1887C36.5524 54.1827 36.352 54.1827 36.1604 54.1827C36.1368 54.9568 36.128 55.734 36.128 56.5141V58.454C36.128 58.9511 36.1368 59.439 36.1545 59.918C36.1722 60.4 36.1928 60.8729 36.2164 61.3398C36.0454 61.3247 35.8657 61.3157 35.6741 61.3157C35.4825 61.3157 35.3027 61.3247 35.1347 61.3398C35.1553 60.8729 35.176 60.4 35.1966 59.918C35.2143 59.436 35.2231 58.948 35.2231 58.454V56.5141C35.2231 55.734 35.2113 54.9538 35.1907 54.1827Z" fill="#007EB2"/>
<path d="M48.7341 61.3428C48.631 61.3277 48.5337 61.3187 48.4394 61.3187H47.8558C47.7644 61.3187 47.6672 61.3277 47.564 61.3428C47.5139 61.1681 47.4432 60.9602 47.3547 60.7162C47.2663 60.4722 47.1691 60.2162 47.06 59.9511C46.9539 59.686 46.8448 59.4149 46.7358 59.1408C46.6267 58.8667 46.5206 58.6046 46.4263 58.3576C46.1935 58.3486 45.9518 58.3456 45.7101 58.3396C45.4684 58.3366 45.2238 58.3335 44.9821 58.3335C44.7551 58.3335 44.5311 58.3335 44.3101 58.3396C44.089 58.3426 43.865 58.3486 43.638 58.3576C43.4022 58.945 43.19 59.5023 42.9984 60.0325C42.8069 60.5626 42.6624 60.9994 42.5681 61.3458C42.4443 61.3307 42.3058 61.3217 42.1614 61.3217C42.0169 61.3217 41.8784 61.3307 41.7546 61.3458C42.35 60.0294 42.9307 58.7221 43.4966 57.4238C44.0625 56.1226 44.6343 54.8002 45.2061 53.4567H45.4153C45.5922 53.8935 45.7838 54.3634 45.9901 54.8725C46.1964 55.3785 46.4057 55.8936 46.6179 56.4117C46.8301 56.9298 47.0423 57.4449 47.2575 57.957C47.4697 58.4691 47.6701 58.945 47.8588 59.3818C48.0474 59.8216 48.2154 60.2132 48.3657 60.5596C48.516 60.906 48.6398 61.1681 48.7371 61.3488L48.7341 61.3428ZM43.8473 57.8365C44.0389 57.8365 44.2364 57.8395 44.4427 57.8486C44.649 57.8576 44.8465 57.8606 45.0381 57.8606C45.2444 57.8606 45.4507 57.8606 45.657 57.8546C45.8633 57.8516 46.0697 57.8456 46.276 57.8365L45.0499 54.9749L43.8473 57.8365Z" fill="#007EB2"/>
<path d="M53.6151 55.0562C53.5974 54.5803 53.5768 54.0923 53.5532 53.5983C53.6475 53.6133 53.7389 53.6254 53.8303 53.6374C53.9187 53.6495 54.0071 53.6555 54.0955 53.6555C54.184 53.6555 54.2724 53.6495 54.3608 53.6374C54.4492 53.6254 54.5406 53.6133 54.6379 53.5983C54.6143 54.0953 54.5937 54.5803 54.576 55.0562C54.5583 55.5322 54.5465 56.0201 54.5465 56.5172C54.5465 57.463 54.5494 58.2854 54.5583 58.9812C54.5642 59.677 54.573 60.2975 54.5789 60.8458C55.1006 60.8458 55.6017 60.8397 56.0792 60.8277C56.5566 60.8156 57.0724 60.7735 57.6236 60.6982C57.5853 60.8337 57.5676 60.9452 57.5676 61.0355C57.5676 61.1169 57.5853 61.2193 57.6236 61.3398C57.2847 61.3247 56.9457 61.3157 56.6097 61.3157H54.576C54.2488 61.3157 53.9069 61.3247 53.5561 61.3398C53.5768 60.8729 53.5974 60.4 53.618 59.918C53.6357 59.436 53.6475 58.948 53.6475 58.454V56.5141C53.6475 56.0171 53.6387 55.5321 53.618 55.0532L53.6151 55.0562Z" fill="#007EB2"/>
<path d="M75.4084 54.5682C75.2434 54.4327 75.0577 54.3152 74.8573 54.2128C74.6539 54.1104 74.4299 54.029 74.1852 53.9658C73.9377 53.9025 73.6753 53.8694 73.3953 53.8694C72.9385 53.8694 72.514 53.9417 72.122 54.0833C71.7271 54.2278 71.3852 54.4447 71.0963 54.7429C70.8045 55.0381 70.5776 55.4147 70.4125 55.8695C70.2475 56.3244 70.1649 56.8636 70.1649 57.4871C70.1649 58.0353 70.2386 58.5324 70.3831 58.9752C70.5304 59.418 70.7456 59.7915 71.0285 60.0957C71.3115 60.4 71.6563 60.6349 72.066 60.8006C72.4757 60.9663 72.9355 61.0476 73.4513 61.0476C73.6046 61.0476 73.7667 61.0386 73.9347 61.0235C74.1057 61.0084 74.2678 60.9843 74.4269 60.9542C74.5831 60.9241 74.7305 60.8879 74.8661 60.8428C75.0017 60.7976 75.1166 60.7464 75.2139 60.6831C75.2198 60.4572 75.2257 60.2313 75.2286 60.0053C75.2286 59.7794 75.2345 59.5505 75.2345 59.3186C75.2345 59.0565 75.2286 58.7914 75.2198 58.5293C75.208 58.2673 75.1962 58.0142 75.1815 57.7733C75.3642 57.8124 75.5411 57.8305 75.712 57.8305C75.7916 57.8305 75.8741 57.8275 75.9537 57.8185C76.0333 57.8094 76.1129 57.7944 76.1866 57.7733C76.1718 57.948 76.16 58.2191 76.1541 58.5896C76.1453 58.9631 76.1423 59.4511 76.1423 60.0596C76.1423 60.2102 76.1423 60.3608 76.1482 60.5174C76.1482 60.6711 76.1541 60.8247 76.1541 60.9723C75.9979 61.0325 75.8063 61.0958 75.5764 61.159C75.3436 61.2223 75.0989 61.2765 74.8366 61.3157C74.5743 61.3578 74.3149 61.394 74.0526 61.4271C73.7903 61.4603 73.5545 61.4783 73.3423 61.4783C72.688 61.4783 72.0955 61.397 71.5709 61.2343C71.0462 61.0747 70.5982 60.8217 70.2327 60.4843C69.8643 60.1469 69.5814 59.7252 69.3839 59.2222C69.1834 58.7191 69.0862 58.1347 69.0862 57.4751C69.0862 56.8154 69.1893 56.2671 69.3957 55.7671C69.602 55.2671 69.8938 54.8454 70.2681 54.4989C70.6424 54.1525 71.0963 53.8905 71.6298 53.7097C72.1633 53.529 72.7528 53.4386 73.4012 53.4386C73.7756 53.4386 74.1086 53.4597 74.3975 53.5019C74.6863 53.5441 74.9457 53.5983 75.1697 53.6646C75.3937 53.7338 75.5912 53.8031 75.7592 53.8784C75.9272 53.9537 76.0775 54.026 76.2101 54.0923C76.1512 54.1977 76.0981 54.3333 76.051 54.4989C76.0038 54.6646 75.9714 54.8182 75.9567 54.9598H75.824C75.715 54.8243 75.5764 54.6887 75.4114 54.5532L75.4084 54.5682Z" fill="#007EB2"/>
<path d="M81.7218 56.5172C81.7218 56.0201 81.713 55.5352 81.6924 55.0562C81.6747 54.5803 81.6541 54.0923 81.6305 53.5983C81.8427 53.6133 82.052 53.6254 82.2583 53.6374C82.4646 53.6495 82.6739 53.6555 82.8861 53.6555C83.0983 53.6555 83.3076 53.6465 83.5139 53.6284C83.7202 53.6103 83.9295 53.6013 84.1417 53.6013C84.4512 53.6013 84.7459 53.6314 85.023 53.6917C85.303 53.7519 85.5476 53.8513 85.7569 53.9899C85.9662 54.1284 86.1312 54.3122 86.255 54.5381C86.3758 54.764 86.4377 55.0442 86.4377 55.3815C86.4377 55.743 86.3582 56.0533 86.2019 56.3123C86.0428 56.5714 85.8512 56.7853 85.6242 56.9539C85.3943 57.1226 85.1527 57.2552 84.8903 57.3485C84.628 57.4419 84.3922 57.5052 84.1771 57.5353C84.2655 57.6468 84.3863 57.8064 84.5425 58.0082C84.6958 58.21 84.8697 58.436 85.0613 58.68C85.2529 58.9239 85.4503 59.18 85.6567 59.4451C85.863 59.7132 86.0605 59.9662 86.2521 60.2102C86.4436 60.4542 86.6234 60.6771 86.7944 60.8819C86.9624 61.0837 87.098 61.2404 87.2011 61.3428C87.0921 61.3277 86.9801 61.3187 86.871 61.3187H86.2196C86.1106 61.3187 86.0015 61.3277 85.8984 61.3428C85.7893 61.1831 85.6213 60.9482 85.3973 60.6319C85.1733 60.3156 84.9257 59.9782 84.6516 59.6168C84.3804 59.2553 84.1004 58.8968 83.8175 58.5414C83.5345 58.1859 83.2751 57.8817 83.0394 57.6347H82.6179V58.457C82.6179 58.9541 82.6267 59.4421 82.6473 59.921C82.665 60.403 82.6856 60.8759 82.7092 61.3428C82.5383 61.3277 82.3585 61.3187 82.1669 61.3187C81.9753 61.3187 81.7955 61.3277 81.6275 61.3428C81.6482 60.8759 81.6688 60.403 81.6894 59.921C81.7071 59.439 81.7189 58.9511 81.7189 58.457V56.5172H81.7218ZM82.6238 57.1588C82.7269 57.1829 82.8389 57.1979 82.9598 57.2039C83.0806 57.21 83.2162 57.216 83.3636 57.216C83.5905 57.216 83.8293 57.1889 84.0768 57.1377C84.3215 57.0865 84.5484 56.9931 84.7548 56.8605C84.9611 56.728 85.132 56.5533 85.2676 56.3304C85.4032 56.1075 85.471 55.8304 85.471 55.49C85.471 55.1978 85.4179 54.9538 85.3118 54.764C85.2057 54.5743 85.0672 54.4206 84.8992 54.3092C84.7282 54.1977 84.5455 54.1194 84.348 54.0772C84.1505 54.0351 83.956 54.014 83.7644 54.014C83.508 54.014 83.2958 54.02 83.1248 54.029C82.9539 54.0411 82.8124 54.0531 82.6945 54.0682C82.6798 54.4809 82.665 54.8905 82.6503 55.2972C82.6356 55.7038 82.6267 56.1075 82.6267 56.5141V57.1558L82.6238 57.1588Z" fill="#007EB2"/>
<path d="M91.4808 57.4871C91.4808 56.8485 91.581 56.2792 91.7844 55.7792C91.9878 55.2791 92.2678 54.8574 92.6332 54.511C92.9987 54.1646 93.432 53.9025 93.9419 53.7218C94.4518 53.541 95.003 53.4507 95.6072 53.4507C96.2114 53.4507 96.7744 53.541 97.2843 53.7218C97.7913 53.9025 98.2275 54.1646 98.593 54.511C98.9584 54.8574 99.2414 55.2791 99.4418 55.7792C99.6452 56.2792 99.7454 56.8485 99.7454 57.4871C99.7454 58.1257 99.6452 58.695 99.4418 59.195C99.2384 59.6951 98.9555 60.1168 98.593 60.4632C98.2304 60.8096 97.7942 61.0657 97.2843 61.2343C96.7773 61.403 96.2173 61.4874 95.6072 61.4874C94.9971 61.4874 94.4489 61.403 93.9419 61.2343C93.435 61.0657 92.9987 60.8066 92.6332 60.4632C92.2707 60.1168 91.9878 59.6951 91.7844 59.195C91.581 58.695 91.4808 58.1257 91.4808 57.4871ZM98.6608 57.4871C98.6608 56.8636 98.5841 56.3244 98.4279 55.8695C98.2746 55.4147 98.0595 55.0381 97.7824 54.7429C97.5054 54.4447 97.1841 54.2248 96.8127 54.0833C96.4413 53.9417 96.0375 53.8694 95.6043 53.8694C95.171 53.8694 94.779 53.9417 94.4076 54.0833C94.0362 54.2278 93.712 54.4447 93.4379 54.7429C93.1638 55.0381 92.9486 55.4147 92.7924 55.8695C92.6362 56.3244 92.5596 56.8636 92.5596 57.4871C92.5596 58.1106 92.6362 58.6498 92.7924 59.1047C92.9486 59.5595 93.1638 59.9361 93.4379 60.2313C93.715 60.5265 94.0362 60.7494 94.4076 60.8909C94.779 61.0355 95.1769 61.1048 95.6043 61.1048C96.0316 61.1048 96.4413 61.0325 96.8127 60.8909C97.1841 60.7494 97.5083 60.5295 97.7824 60.2313C98.0595 59.9331 98.2746 59.5595 98.4279 59.1047C98.5841 58.6498 98.6608 58.1106 98.6608 57.4871Z" fill="#007EB2"/>
<path d="M110.672 57.2612C110.672 56.1948 110.669 55.3725 110.66 54.7911C110.654 54.2128 110.633 53.8152 110.604 53.5983C110.683 53.6133 110.763 53.6254 110.837 53.6374C110.91 53.6495 110.984 53.6555 111.058 53.6555C111.152 53.6555 111.264 53.6374 111.388 53.5983C111.367 53.8603 111.344 54.1736 111.323 54.5381C111.302 54.9026 111.282 55.2942 111.267 55.7099C111.252 56.1256 111.237 56.5563 111.223 56.9931C111.208 57.4329 111.196 57.8606 111.19 58.2733C111.181 58.7763 111.108 59.2282 110.963 59.6258C110.819 60.0234 110.616 60.3638 110.35 60.6409C110.085 60.9181 109.761 61.1289 109.375 61.2705C108.989 61.4151 108.546 61.4844 108.045 61.4844C106.943 61.4844 106.141 61.2283 105.64 60.7162C105.142 60.2072 104.892 59.3969 104.892 58.2944C104.892 57.942 104.9 57.6287 104.918 57.3546C104.936 57.0804 104.948 56.8003 104.948 56.5141C104.948 55.8846 104.939 55.3243 104.927 54.8363C104.912 54.3483 104.898 53.9357 104.883 53.5953C104.971 53.6103 105.066 53.6224 105.169 53.6344C105.272 53.6465 105.366 53.6525 105.455 53.6525C105.534 53.6525 105.614 53.6465 105.69 53.6344C105.767 53.6224 105.847 53.6103 105.926 53.5953C105.911 53.7609 105.897 53.9778 105.882 54.2429C105.867 54.508 105.852 54.8122 105.838 55.1496C105.823 55.487 105.811 55.8515 105.805 56.243C105.796 56.6346 105.794 57.0383 105.794 57.46C105.794 57.716 105.794 57.9811 105.805 58.2552C105.811 58.5293 105.838 58.7974 105.882 59.0565C105.926 59.3155 105.997 59.5625 106.097 59.8005C106.197 60.0385 106.339 60.2433 106.522 60.421C106.707 60.5988 106.937 60.7373 107.217 60.8367C107.497 60.9392 107.842 60.9904 108.255 60.9904C108.667 60.9904 109 60.9301 109.274 60.8096C109.552 60.6891 109.776 60.5325 109.952 60.3367C110.129 60.1409 110.268 59.915 110.365 59.6589C110.465 59.4029 110.536 59.1378 110.58 58.8577C110.624 58.5806 110.651 58.3004 110.657 58.0233C110.666 57.7462 110.669 57.4901 110.669 57.2582L110.672 57.2612Z" fill="#007EB2"/>
<path d="M117.147 56.5172C117.147 56.0201 117.138 55.5352 117.121 55.0562C117.103 54.5803 117.082 54.0923 117.059 53.5983C117.235 53.6133 117.412 53.6254 117.592 53.6374C117.772 53.6495 117.952 53.6555 118.126 53.6555C118.214 53.6555 118.32 53.6525 118.447 53.6435C118.574 53.6344 118.697 53.6314 118.827 53.6284C118.957 53.6254 119.078 53.6194 119.198 53.6103C119.316 53.6013 119.417 53.5983 119.496 53.5983C119.605 53.5983 119.744 53.6013 119.903 53.6103C120.062 53.6194 120.236 53.6405 120.416 53.6766C120.596 53.7158 120.775 53.77 120.949 53.8453C121.123 53.9206 121.285 54.029 121.43 54.1706C121.571 54.3152 121.689 54.4929 121.777 54.7068C121.866 54.9207 121.91 55.1857 121.91 55.502C121.91 55.999 121.804 56.3997 121.598 56.7069C121.388 57.0142 121.132 57.2552 120.825 57.4269C120.519 57.6016 120.198 57.716 119.856 57.7763C119.514 57.8365 119.21 57.8666 118.945 57.8666C118.777 57.8666 118.621 57.8666 118.482 57.8606C118.341 57.8576 118.199 57.8486 118.052 57.8335V58.454C118.052 58.9511 118.061 59.439 118.078 59.918C118.096 60.4 118.117 60.8729 118.14 61.3398C117.972 61.3247 117.793 61.3157 117.601 61.3157C117.409 61.3157 117.23 61.3247 117.062 61.3398C117.082 60.8729 117.103 60.4 117.123 59.918C117.141 59.436 117.15 58.948 117.15 58.454V56.5141L117.147 56.5172ZM118.052 57.3636C118.302 57.4238 118.562 57.454 118.833 57.454C119.063 57.454 119.299 57.4269 119.54 57.3757C119.782 57.3244 120.006 57.2281 120.206 57.0895C120.407 56.9509 120.575 56.7581 120.705 56.5141C120.831 56.2702 120.896 55.9569 120.896 55.5743C120.896 55.252 120.852 54.9869 120.764 54.7851C120.675 54.5833 120.551 54.4236 120.395 54.3122C120.236 54.2007 120.044 54.1224 119.817 54.0802C119.588 54.0381 119.331 54.017 119.045 54.017H118.052V57.3636Z" fill="#007EB2"/>
<path d="M3.42913 75.4281C3.55587 75.3739 3.64135 75.401 3.68261 75.5124C3.72388 75.6239 3.71209 75.8016 3.64724 76.0426C3.5824 76.3318 3.5205 76.5306 3.45566 76.636C3.39082 76.7444 3.31418 76.7776 3.22281 76.7414C3.18744 76.7324 3.14323 76.7414 3.09313 76.7625C3.04302 76.7866 2.99586 76.8197 2.9487 76.8679C2.90154 76.9161 2.86323 76.9643 2.83375 77.0216C2.80133 77.0788 2.78659 77.124 2.78659 77.1631C2.78659 77.2113 2.76301 77.2776 2.7188 77.374C2.67164 77.4674 2.61269 77.5638 2.54196 77.6662L2.00847 78.6151L1.48972 79.7326L2.22658 79.6211C2.36216 79.6211 2.46827 79.6302 2.54196 79.6483C2.61564 79.6663 2.67459 79.6904 2.7188 79.7175C2.76301 79.7446 2.80133 79.7808 2.82786 79.823C2.85438 79.8651 2.8927 79.9103 2.93691 79.9555C3.00176 80.085 3.02533 80.2206 3.0106 80.3622C2.99586 80.5037 2.93986 80.6453 2.83965 80.7959C2.73943 80.9465 2.58617 81.0941 2.38279 81.2417C2.17942 81.3893 1.9112 81.546 1.58404 81.7026C1.21856 81.8803 0.929708 81.9858 0.708651 82.0189C0.487593 82.052 0.316642 82.034 0.189902 81.9707C0.107374 81.9436 0.0513728 81.9074 0.0248459 81.8653C-0.00168098 81.8231 -0.00757585 81.7689 0.0101088 81.6966C0.0277934 81.6273 0.0631626 81.5399 0.113269 81.4375C0.163375 81.3351 0.231166 81.1996 0.310747 81.0309C0.375591 80.9014 0.469909 80.7507 0.596648 80.5851C0.723388 80.4164 0.820653 80.2627 0.882549 80.1242C0.991605 79.9284 1.09771 79.7326 1.19792 79.5368C1.29814 79.341 1.39246 79.1663 1.47793 79.0127C1.56635 78.859 1.63709 78.7295 1.69899 78.6271C1.75794 78.5247 1.79625 78.4614 1.81394 78.4313C1.84047 78.3951 1.93184 78.2295 2.07921 77.9343C2.22953 77.6421 2.40048 77.2957 2.59206 76.8951C2.79249 76.5125 2.96933 76.1781 3.12555 75.889C3.28176 75.5998 3.38197 75.4462 3.42619 75.4281H3.42913ZM2.06152 79.9826C1.88762 79.9826 1.72846 80.0067 1.58404 80.0519C1.43961 80.0971 1.35709 80.1393 1.3394 80.1784C1.23919 80.3381 1.14487 80.4676 1.0594 80.57C0.97392 80.6724 0.876655 80.8321 0.764652 81.0429L0.478751 81.6996L0.820653 81.6153C0.920866 81.5972 1.02992 81.558 1.14782 81.5038C1.26572 81.4466 1.36003 81.3954 1.43372 81.3502C1.50446 81.314 1.59288 81.2658 1.69309 81.2116C1.79331 81.1544 1.9171 81.049 2.06152 80.8893C2.15289 80.7959 2.25016 80.6965 2.35627 80.5881C2.45943 80.4796 2.53311 80.3802 2.57438 80.2868C2.61564 80.1935 2.6009 80.1182 2.53311 80.0579C2.46532 79.9977 2.30616 79.9706 2.06152 79.9796V79.9826Z" fill="#007EB2"/>
<path d="M8.55472 79.5067C8.68146 79.5067 8.78462 79.5699 8.86125 79.6934C8.93789 79.82 8.96441 79.9645 8.93789 80.1332C8.90252 80.32 8.79936 80.4887 8.63725 80.6363C8.47219 80.7869 8.25114 80.9074 7.96818 81.0007C7.85913 81.0369 7.74418 81.0941 7.62628 81.1664C7.50838 81.2417 7.41112 81.311 7.34038 81.3773C7.23132 81.4887 7.09574 81.6936 6.93658 81.9858C6.77742 82.278 6.60941 82.6274 6.42962 83.025C6.25278 83.4256 6.07298 83.8654 5.89024 84.3444C5.7075 84.8233 5.5395 85.3023 5.38328 85.7752C5.23002 86.2963 5.10033 86.712 5.00012 87.0253C4.8999 87.3385 4.82032 87.5705 4.76137 87.7301C4.70243 87.8898 4.66116 87.9771 4.63758 87.9952C4.614 88.0133 4.60221 87.9801 4.60221 87.8988C4.60221 87.8506 4.614 87.7904 4.63758 87.7181C4.66116 87.6458 4.67884 87.5705 4.69948 87.4952C4.75253 87.215 4.8439 86.8505 4.97359 86.3987C5.10033 85.9469 5.2477 85.4709 5.41276 84.9679C5.57487 84.4649 5.75761 83.9618 5.95214 83.4527C6.14667 82.9437 6.3412 82.4888 6.53278 82.0912L6.94247 81.2809L6.69784 81.1965C6.62415 81.1604 6.55341 81.1333 6.47973 81.1212C6.40604 81.1062 6.35299 81.1002 6.31467 81.1002C6.23214 81.1002 6.15256 81.049 6.07003 80.9465C5.96982 80.826 5.95803 80.7357 6.03467 80.6814C6.1113 80.6242 6.2292 80.6333 6.38246 80.7086C6.64773 80.7929 6.86879 80.82 7.05153 80.7929C7.23427 80.7658 7.36101 80.6784 7.4347 80.5278C7.47007 80.4525 7.54375 80.3591 7.65281 80.2417C7.76186 80.1272 7.87681 80.0127 7.99471 79.9073C8.11261 79.8019 8.22461 79.7085 8.32777 79.6272C8.43388 79.5488 8.50756 79.5097 8.55472 79.5097V79.5067ZM8.5282 80.4284C8.73746 80.2146 8.74631 80.1061 8.55472 80.1061C8.42798 80.1061 8.28945 80.1483 8.14503 80.2326C8.0006 80.317 7.8886 80.4134 7.81786 80.5248C7.75302 80.6182 7.73239 80.6724 7.75597 80.6845C7.7766 80.6995 7.86797 80.6875 8.02124 80.6513C8.10376 80.6333 8.19514 80.6031 8.30124 80.561C8.40735 80.5188 8.48104 80.4736 8.5282 80.4284Z" fill="#007EB2"/>
<path d="M23.9285 75.6661C23.9934 75.5907 24.0789 75.5636 24.1879 75.5817C24.297 75.5998 24.35 75.657 24.35 75.7474C24.35 75.7775 24.3088 75.8829 24.2203 76.0697C24.1319 76.2565 24.0376 76.4522 23.9344 76.6631C23.8283 76.874 23.7281 77.0637 23.6338 77.2354C23.5395 77.4071 23.4776 77.4975 23.4511 77.5065C23.3951 77.5336 23.3685 77.5758 23.3685 77.6331C23.3685 77.6602 23.3332 77.7294 23.2654 77.8349C23.1976 77.9403 23.1121 78.0638 23.0119 78.2054C22.9117 78.3439 22.8085 78.4855 22.7054 78.6301C22.6022 78.7747 22.5079 78.8892 22.4254 78.9735C22.3428 79.0669 22.2544 79.1723 22.1601 79.2958C22.0658 79.4193 21.9744 79.5338 21.8948 79.6452C21.8123 79.7567 21.7474 79.8561 21.6973 79.9374C21.6472 80.0188 21.6236 80.076 21.6236 80.1031C21.6236 80.1212 21.6119 80.1453 21.5883 80.1724C21.5647 80.1995 21.547 80.2236 21.5264 80.2417C21.4999 80.2507 21.4291 80.3622 21.3142 80.576C21.1992 80.7899 21.0754 81.0459 20.9369 81.3442C20.8013 81.6424 20.6628 81.9496 20.5272 82.2659C20.3916 82.5822 20.2914 82.8382 20.2266 83.034C20.1175 83.3985 20.0291 83.6244 19.9672 83.7178C19.9023 83.8112 19.8729 83.763 19.8729 83.5762C19.8729 83.5009 19.8994 83.3563 19.9554 83.1425C20.0085 82.9286 20.0792 82.6997 20.1617 82.4587C20.2708 82.1334 20.3415 81.8894 20.3739 81.7327C20.4064 81.5731 20.3975 81.4586 20.3533 81.3833C20.3179 81.317 20.2796 81.2719 20.2442 81.2417C20.2089 81.2146 20.1558 81.2056 20.088 81.2146C20.0202 81.2237 19.9289 81.2538 19.8139 81.305C19.699 81.3562 19.5575 81.4255 19.3836 81.5068C18.3461 82.046 17.8244 82.0129 17.8244 81.4104C17.8244 81.2327 17.8834 81.0761 18.0012 80.9345C18.1191 80.7959 18.3196 80.6453 18.6025 80.4887C19.1301 80.1724 19.5575 80.1483 19.8876 80.4194C19.9701 80.4857 20.0379 80.5308 20.0939 80.561C20.1499 80.5881 20.2 80.6031 20.2501 80.6031C20.3002 80.6031 20.3562 80.5881 20.4211 80.5549C20.4859 80.5218 20.5655 80.4676 20.6687 80.3953C20.8426 80.2838 21.0548 80.0519 21.3112 79.6964C21.5676 79.341 21.8241 78.9103 22.0893 78.3982C22.2072 78.1933 22.3517 77.9524 22.5197 77.6722C22.6877 77.3921 22.8616 77.121 23.0384 76.8529C23.2153 76.5878 23.3862 76.3468 23.5454 76.1269C23.7045 75.91 23.8342 75.7534 23.9344 75.66L23.9285 75.6661ZM19.3099 81.1965C19.4278 81.1303 19.531 81.067 19.6164 81.0008C19.7019 80.9345 19.7461 80.8923 19.7461 80.8742C19.7196 80.808 19.6135 80.7628 19.4308 80.7327C19.248 80.7056 19.083 80.7116 18.9385 80.7477C18.856 80.7748 18.7764 80.814 18.6998 80.8652C18.6232 80.9164 18.5554 80.9706 18.4935 81.0249C18.4345 81.0821 18.3903 81.1393 18.3579 81.1996C18.3255 81.2598 18.3137 81.308 18.3225 81.3472C18.3697 81.4315 18.461 81.4646 18.5966 81.4436C18.7322 81.4255 18.971 81.3411 19.307 81.1935L19.3099 81.1965ZM20.7158 80.9736C20.763 80.9375 20.7925 80.8953 20.8102 80.8471C20.8278 80.802 20.8278 80.7688 20.8102 80.7507C20.7836 80.7327 20.7483 80.7327 20.707 80.7507C20.6657 80.7688 20.6274 80.7929 20.5891 80.826C20.5508 80.8592 20.5243 80.8953 20.5007 80.9375C20.4771 80.9797 20.4771 81.0128 20.4948 81.0429C20.5419 81.1002 20.6127 81.0761 20.7129 80.9736H20.7158ZM22.9294 77.9132C22.9942 77.8379 23.0502 77.7656 23.1003 77.6903C23.1504 77.615 23.174 77.5547 23.174 77.5096C23.174 77.4433 23.1268 77.4614 23.0384 77.5577C22.947 77.6541 22.8645 77.7776 22.7908 77.9283C22.7378 78.0488 22.7142 78.109 22.723 78.109C22.7319 78.109 22.7997 78.0427 22.9294 77.9132Z" fill="#007EB2"/>
<path d="M26.3896 80.1362C26.3336 80.1182 26.2482 80.1212 26.1303 80.1423C26.0124 80.1664 25.8856 80.2115 25.7559 80.2838C25.6233 80.3531 25.4936 80.4435 25.3669 80.5549C25.2401 80.6664 25.1429 80.805 25.081 80.9736C24.9719 81.2447 24.8806 81.4496 24.8069 81.5942C24.7332 81.7387 24.6713 81.8442 24.6241 81.9074C24.574 81.9737 24.5357 82.0038 24.5092 81.9978C24.4797 81.9918 24.4532 81.9767 24.4267 81.9496C24.409 81.9315 24.4149 81.8623 24.4473 81.7388C24.4797 81.6183 24.5239 81.4677 24.577 81.2929C24.633 81.1152 24.6949 80.9254 24.7597 80.7206C24.8275 80.5158 24.8982 80.329 24.966 80.1543C25.0338 79.9826 25.0957 79.841 25.1517 79.7296C25.2048 79.6181 25.246 79.5609 25.2755 79.5609C25.3669 79.5609 25.4258 79.6543 25.4524 79.841C25.4789 80.0188 25.5025 80.1061 25.5202 80.1061C25.5378 80.1061 25.585 80.085 25.6587 80.0368C25.7324 79.9886 25.8178 79.9344 25.9181 79.8681C26.0183 79.7928 26.1244 79.7326 26.2393 79.6874C26.3513 79.6392 26.4368 79.6181 26.4928 79.6181C26.6195 79.6181 26.7257 79.6663 26.8141 79.7657C26.9025 79.8651 26.9673 79.9796 27.0116 80.1152C27.0558 80.2507 27.0793 80.3893 27.0793 80.5339C27.0793 80.6784 27.0528 80.7959 26.9968 80.8893C26.988 80.9074 26.9673 80.9224 26.9408 80.9315C26.9143 80.9405 26.8642 80.9315 26.7905 80.9044C26.7522 80.8682 26.7286 80.7989 26.7139 80.7025C26.6991 80.6061 26.6903 80.5097 26.6785 80.4164C26.652 80.3411 26.6078 80.2838 26.5488 80.2356C26.4899 80.1874 26.4368 80.1573 26.3926 80.1393L26.3896 80.1362Z" fill="#007EB2"/>
<path d="M30.4335 81.9526C30.4335 81.9526 30.4099 81.9195 30.3864 81.8833C30.3628 81.8472 30.3422 81.805 30.3245 81.7568C30.2891 81.6815 30.2685 81.6363 30.2685 81.6183C30.2685 81.6002 30.2862 81.5671 30.3245 81.5219C30.4601 81.3743 30.634 81.3231 30.8432 81.3682C30.9434 81.3984 31.0053 81.4195 31.026 81.4375C31.0495 81.4556 31.0613 81.4887 31.0613 81.5339C31.0613 81.5701 31.0436 81.6152 31.0053 81.6665C30.967 81.7177 30.9287 81.7659 30.8815 81.8141C30.8344 81.8592 30.7843 81.9014 30.7253 81.9315C30.6664 81.9647 30.6192 81.9797 30.5809 81.9797C30.5161 81.9797 30.4689 81.9707 30.4306 81.9526H30.4335Z" fill="#007EB2"/>
<path d="M47.9796 73.4731C48.0621 73.5936 48.012 73.9611 47.8293 74.5756C47.7468 74.8558 47.6465 75.166 47.5287 75.5064C47.4108 75.8468 47.2722 76.1932 47.119 76.5456C47.0453 76.7234 46.9539 76.9402 46.8448 77.2023C46.7358 77.4644 46.6208 77.7415 46.4971 78.0427C46.3733 78.3409 46.2524 78.6482 46.1286 78.9584C46.0048 79.2687 45.8928 79.5549 45.7926 79.8169C45.7455 79.9193 45.7071 80.0157 45.6688 80.1031C45.6305 80.1905 45.601 80.2778 45.5745 80.3622C45.4006 80.7718 45.268 81.0941 45.1707 81.3261C45.0764 81.558 45.0056 81.7357 44.9585 81.8562C44.9054 81.9677 44.8642 82.043 44.8347 82.0791C44.8052 82.1153 44.7757 82.1364 44.7404 82.1364L44.7256 82.1213H44.7109C44.6814 82.1213 44.6608 82.1032 44.6431 82.0671C44.6166 82.0189 44.6225 81.9225 44.6637 81.7749C44.705 81.6273 44.7934 81.3803 44.929 81.0339V81.0188C45.0204 80.8592 45.097 80.6845 45.1619 80.4887C45.2267 80.2929 45.268 80.1453 45.2857 80.0429C45.3033 79.9404 45.3387 79.832 45.3888 79.7145C45.4389 79.6001 45.4861 79.5157 45.5332 79.4705V79.4555C45.6334 79.335 45.6629 79.2416 45.6276 79.1753C45.6099 79.1572 45.548 79.1362 45.4419 79.1121C45.3387 79.088 45.2061 79.0639 45.044 79.0338C44.8848 79.0066 44.708 78.9795 44.5105 78.9584C44.313 78.9374 44.1214 78.9163 43.9298 78.8952C43.6911 78.8771 43.5142 78.8651 43.3963 78.859C43.2785 78.856 43.2107 78.859 43.19 78.8801L43.1075 78.9765C43.0338 79.0699 42.9218 79.2115 42.7656 79.4012C42.6094 79.594 42.4473 79.8079 42.2734 80.0519C41.8106 80.6574 41.395 81.2568 41.0296 81.8532C40.6641 82.4497 40.3929 82.9858 40.2102 83.4587C40.1453 83.6545 40.0805 83.8052 40.0039 83.9136C39.9302 84.019 39.8624 84.0702 39.7975 84.0612H39.7828C39.7474 84.0612 39.718 84.0431 39.7003 84.004C39.6826 83.9678 39.6855 83.8985 39.715 83.8022C39.7415 83.7058 39.8064 83.5431 39.9066 83.3202C40.0245 83.031 40.1483 82.7599 40.275 82.5039C40.4018 82.2478 40.5403 81.9948 40.6936 81.7418C40.8439 81.4918 41.0089 81.2297 41.1858 80.9586C41.3626 80.6875 41.5719 80.3953 41.8077 80.079C42.0346 79.7718 42.2262 79.5067 42.3824 79.2838C42.5386 79.0609 42.633 78.9193 42.6683 78.8651C42.6506 78.856 42.633 78.85 42.6153 78.85C42.5976 78.85 42.574 78.844 42.5475 78.8349H42.3029C41.9197 78.8349 41.5719 78.8711 41.2565 78.9404C40.9411 79.0097 40.7171 79.1 40.5786 79.2115C40.5049 79.2777 40.4519 79.3229 40.4135 79.35C40.3782 79.3802 40.3399 79.3862 40.3045 79.3802C40.2603 79.3802 40.1954 79.3229 40.1129 79.2115C40.0039 79.0639 39.9626 78.9494 39.9891 78.8771C40.0068 78.7898 40.0716 78.7145 40.1807 78.6482C40.2161 78.6392 40.3251 78.6181 40.502 78.591C40.6788 78.5608 40.894 78.5337 41.1504 78.5036C41.4068 78.4735 41.678 78.4494 41.9698 78.4313C42.2616 78.4132 42.5386 78.3982 42.8039 78.3891H42.8187C42.8923 78.3891 42.9749 78.365 43.0692 78.3138C43.1635 78.2626 43.246 78.1994 43.3079 78.1271C43.4465 77.9493 43.585 77.7716 43.7265 77.5969C43.8679 77.4192 43.9947 77.2595 44.1096 77.115C44.2216 76.9704 44.3218 76.8529 44.4044 76.7655C44.4869 76.6782 44.537 76.6239 44.5547 76.6059H44.5694C44.5871 76.5878 44.6402 76.5336 44.7256 76.4462C44.8141 76.3589 44.9113 76.2534 45.0204 76.133C45.0646 76.0848 45.1118 76.0366 45.1648 75.9793C45.2149 75.9251 45.268 75.8679 45.321 75.8137C45.5126 75.5998 45.6865 75.4221 45.8398 75.2835C45.9577 75.163 46.0314 75.0937 46.0579 75.0726C46.0844 75.0516 46.108 75.0455 46.1257 75.0455C46.1817 75.0546 46.2583 75.0275 46.3585 74.9672C46.4587 74.907 46.5619 74.8286 46.6651 74.7292C46.7682 74.6298 46.8684 74.5244 46.9598 74.4069C47.0512 74.2925 47.1219 74.175 47.1779 74.0635C47.287 73.8497 47.4019 73.681 47.5198 73.5605C47.6377 73.44 47.7438 73.3828 47.8352 73.3918C47.9 73.4099 47.9442 73.44 47.9708 73.4761L47.9796 73.4731ZM47.1455 75.5245C47.1809 75.4311 47.2133 75.3347 47.2398 75.2323C47.2663 75.1299 47.2899 75.0425 47.3076 74.9672C47.3253 74.8919 47.3312 74.8377 47.3282 74.7985C47.3253 74.7624 47.3046 74.7624 47.2663 74.7985C47.175 74.9461 47.06 75.1028 46.9185 75.2594C46.7771 75.4191 46.6091 75.4823 46.4204 75.4552C46.2377 75.4251 45.8457 75.7564 45.2444 76.4462C45.0882 76.6059 44.9231 76.7866 44.7463 76.9914C44.5694 77.1963 44.4014 77.3951 44.2482 77.5849C44.0919 77.7776 43.9593 77.9493 43.8444 78.103C43.7294 78.2566 43.6616 78.356 43.6321 78.4042C43.6675 78.4223 43.7618 78.4494 43.9121 78.4825C44.0625 78.5156 44.2364 78.5488 44.4368 78.5879C44.6372 78.6271 44.8435 78.6602 45.0587 78.6934C45.2709 78.7265 45.4625 78.7506 45.6246 78.7687H45.6659C45.7838 78.7777 45.8575 78.7265 45.884 78.6151C45.8928 78.5699 45.9341 78.4584 46.0078 78.2807C46.0815 78.103 46.1669 77.8951 46.2672 77.6511L46.3909 77.3589C46.5648 76.9673 46.7122 76.6209 46.836 76.3197C46.9598 76.0185 47.06 75.7534 47.1425 75.5305L47.1455 75.5245Z" fill="#007EB2"/>
<path d="M51.1245 82.0761C51.1068 82.049 51.1068 81.9737 51.1304 81.8532C51.154 81.7327 51.1982 81.5972 51.2601 81.4466C51.3073 81.299 51.3544 81.1453 51.4045 80.9857C51.4546 80.826 51.49 80.7146 51.5077 80.6513C51.5342 80.5399 51.5313 80.4766 51.5018 80.4615C51.4723 80.4465 51.3485 80.4555 51.1393 80.4826C50.9948 80.5007 50.8003 80.57 50.5586 80.6935C50.3169 80.817 50.031 80.9827 49.7039 81.1965C49.4386 81.3743 49.1969 81.5279 48.9788 81.6574C48.7607 81.7869 48.6369 81.8532 48.6104 81.8532C48.5838 81.8532 48.5544 81.8291 48.5278 81.7839C48.5013 81.7388 48.4777 81.6906 48.46 81.6454C48.4424 81.5881 48.4335 81.5369 48.4335 81.4857C48.4335 81.4345 48.4512 81.3773 48.4866 81.311C48.5219 81.2447 48.5779 81.1664 48.6516 81.073C48.7253 80.9797 48.8255 80.8622 48.9523 80.7236C49.0436 80.6212 49.1114 80.5339 49.1586 80.4585C49.2057 80.3832 49.2411 80.32 49.2676 80.2688C49.2942 80.2176 49.3207 80.1784 49.3502 80.1513C49.3767 80.1242 49.415 80.1001 49.4592 80.082C49.9131 79.9525 49.9426 80.1182 49.5418 80.5851C49.4681 80.6604 49.4091 80.7266 49.3649 80.7869C49.3177 80.8471 49.306 80.8893 49.3236 80.9074C49.5241 80.8049 49.7068 80.7086 49.8719 80.6152C50.0163 80.5399 50.1548 80.4676 50.2816 80.3983C50.4083 80.329 50.4879 80.2838 50.5144 80.2658C50.5498 80.2386 50.6235 80.2025 50.7325 80.1603C50.8416 80.1181 50.9654 80.085 51.1009 80.0549C51.2925 80.0188 51.434 80.0067 51.5313 80.0188C51.6285 80.0308 51.717 80.0639 51.7965 80.1091C51.8702 80.1573 51.9233 80.2055 51.9616 80.2567C51.997 80.3079 52.0088 80.3802 51.997 80.4736C51.9852 80.567 51.9498 80.6845 51.8938 80.823C51.8407 80.9646 51.7612 81.1483 51.661 81.3803C51.5047 81.7357 51.3898 81.9586 51.3132 82.0581C51.2365 82.1575 51.1746 82.1635 51.1304 82.0791L51.1245 82.0761Z" fill="#007EB2"/>
<path d="M60.9365 75.6661C61.0014 75.5907 61.0868 75.5636 61.1959 75.5817C61.305 75.5998 61.358 75.657 61.358 75.7474C61.358 75.7775 61.3168 75.8829 61.2283 76.0697C61.1399 76.2565 61.0456 76.4522 60.9424 76.6631C60.8363 76.874 60.7361 77.0637 60.6418 77.2354C60.5475 77.4071 60.4856 77.4975 60.459 77.5065C60.403 77.5336 60.3765 77.5758 60.3765 77.6331C60.3765 77.6602 60.3412 77.7294 60.2734 77.8349C60.2056 77.9403 60.1201 78.0638 60.0199 78.2054C59.9197 78.3439 59.8165 78.4855 59.7133 78.6301C59.6102 78.7747 59.5159 78.8892 59.4333 78.9735C59.3508 79.0669 59.2624 79.1723 59.1681 79.2958C59.0738 79.4193 58.9824 79.5338 58.9028 79.6452C58.8203 79.7567 58.7554 79.8561 58.7053 79.9374C58.6552 80.0188 58.6316 80.076 58.6316 80.1031C58.6316 80.1212 58.6199 80.1453 58.5963 80.1724C58.5727 80.1995 58.555 80.2236 58.5344 80.2417C58.5078 80.2507 58.4371 80.3622 58.3222 80.576C58.2072 80.7899 58.0834 81.0459 57.9449 81.3442C57.8093 81.6424 57.6708 81.9496 57.5352 82.2659C57.3996 82.5822 57.2994 82.8382 57.2346 83.034C57.1255 83.3985 57.0371 83.6244 56.9752 83.7178C56.9103 83.8112 56.8809 83.763 56.8809 83.5762C56.8809 83.5009 56.9074 83.3563 56.9634 83.1425C57.0164 82.9286 57.0872 82.6997 57.1697 82.4587C57.2788 82.1334 57.3495 81.8894 57.3819 81.7327C57.4143 81.5731 57.4055 81.4586 57.3613 81.3833C57.3259 81.317 57.2876 81.2719 57.2522 81.2417C57.2169 81.2146 57.1638 81.2056 57.096 81.2146C57.0282 81.2237 56.9369 81.2538 56.8219 81.305C56.707 81.3562 56.5655 81.4255 56.3916 81.5068C55.3541 82.046 54.8324 82.0129 54.8324 81.4104C54.8324 81.2327 54.8913 81.0761 55.0092 80.9345C55.1271 80.7959 55.3276 80.6453 55.6105 80.4887C56.1381 80.1724 56.5655 80.1483 56.8956 80.4194C56.9781 80.4857 57.0459 80.5308 57.1019 80.561C57.1579 80.5881 57.208 80.6031 57.2581 80.6031C57.3082 80.6031 57.3642 80.5881 57.4291 80.5549C57.4939 80.5218 57.5735 80.4676 57.6767 80.3953C57.8506 80.2838 58.0628 80.0519 58.3192 79.6964C58.5756 79.341 58.8321 78.9103 59.0973 78.3982C59.2152 78.1933 59.3597 77.9524 59.5277 77.6722C59.6957 77.3921 59.8696 77.121 60.0464 76.8529C60.2233 76.5878 60.3942 76.3468 60.5534 76.1269C60.7125 75.91 60.8422 75.7534 60.9424 75.66L60.9365 75.6661ZM56.3179 81.1965C56.4358 81.1303 56.539 81.067 56.6244 81.0008C56.7099 80.9345 56.7541 80.8923 56.7541 80.8742C56.7276 80.808 56.6215 80.7628 56.4387 80.7327C56.256 80.7056 56.091 80.7116 55.9465 80.7477C55.864 80.7748 55.7844 80.814 55.7078 80.8652C55.6312 80.9164 55.5634 80.9706 55.5015 81.0249C55.4425 81.0821 55.3983 81.1393 55.3659 81.1996C55.3335 81.2598 55.3217 81.308 55.3305 81.3472C55.3777 81.4315 55.469 81.4646 55.6046 81.4436C55.7402 81.4255 55.9789 81.3411 56.315 81.1935L56.3179 81.1965ZM57.7238 80.9736C57.771 80.9375 57.8005 80.8953 57.8181 80.8471C57.8358 80.802 57.8358 80.7688 57.8181 80.7507C57.7916 80.7327 57.7563 80.7327 57.715 80.7507C57.6737 80.7688 57.6354 80.7929 57.5971 80.826C57.5588 80.8592 57.5322 80.8953 57.5087 80.9375C57.4851 80.9797 57.4851 81.0128 57.5028 81.0429C57.5499 81.1002 57.6207 81.0761 57.7209 80.9736H57.7238ZM59.9374 77.9132C60.0022 77.8379 60.0582 77.7656 60.1083 77.6903C60.1584 77.615 60.182 77.5547 60.182 77.5096C60.182 77.4433 60.1348 77.4614 60.0464 77.5577C59.955 77.6541 59.8725 77.7776 59.7988 77.9283C59.7458 78.0488 59.7222 78.109 59.731 78.109C59.7399 78.109 59.8077 78.0427 59.9374 77.9132Z" fill="#007EB2"/>
<path d="M63.3947 80.1362C63.3387 80.1182 63.2532 80.1212 63.1353 80.1423C63.0174 80.1664 62.8907 80.2115 62.761 80.2838C62.6284 80.3531 62.4987 80.4435 62.3719 80.5549C62.2452 80.6664 62.1479 80.805 62.086 80.9736C61.977 81.2447 61.8856 81.4496 61.8119 81.5942C61.7382 81.7387 61.6763 81.8442 61.6292 81.9074C61.5791 81.9737 61.5408 82.0038 61.5142 81.9978C61.4848 81.9918 61.4582 81.9767 61.4317 81.9496C61.414 81.9315 61.4199 81.8623 61.4523 81.7388C61.4848 81.6183 61.529 81.4677 61.582 81.2929C61.638 81.1152 61.6999 80.9254 61.7648 80.7206C61.8326 80.5158 61.9033 80.329 61.9711 80.1543C62.0389 79.9826 62.1008 79.841 62.1568 79.7296C62.2098 79.6181 62.2511 79.5609 62.2806 79.5609C62.3719 79.5609 62.4309 79.6543 62.4574 79.841C62.4839 80.0188 62.5075 80.1061 62.5252 80.1061C62.5429 80.1061 62.59 80.085 62.6637 80.0368C62.7374 79.9886 62.8229 79.9344 62.9231 79.8681C63.0233 79.7928 63.1294 79.7326 63.2444 79.6874C63.3564 79.6392 63.4419 79.6181 63.4979 79.6181C63.6246 79.6181 63.7307 79.6663 63.8191 79.7657C63.9076 79.8651 63.9724 79.9796 64.0166 80.1152C64.0608 80.2507 64.0844 80.3893 64.0844 80.5339C64.0844 80.6784 64.0579 80.7959 64.0019 80.8893C63.993 80.9074 63.9724 80.9224 63.9459 80.9315C63.9193 80.9405 63.8692 80.9315 63.7955 80.9044C63.7572 80.8682 63.7336 80.7989 63.7189 80.7025C63.7042 80.6061 63.6953 80.5097 63.6835 80.4164C63.657 80.3411 63.6128 80.2838 63.5539 80.2356C63.4949 80.1874 63.4419 80.1573 63.3976 80.1393L63.3947 80.1362Z" fill="#007EB2"/>
<path d="M67.5506 81.8803C67.5329 81.8803 67.4946 81.8592 67.4415 81.8171C67.3855 81.7749 67.3325 81.7297 67.2765 81.6845C67.1202 81.5369 67.0495 81.3321 67.0642 81.07C67.079 80.808 67.1704 80.564 67.3443 80.329C67.4798 80.1242 67.6537 79.9555 67.863 79.826C68.0723 79.6964 68.2727 79.6091 68.4643 79.5669C68.6559 79.5247 68.818 79.5308 68.9565 79.588C69.095 79.6422 69.1628 79.7537 69.1628 79.9224C69.1628 80.0609 69.1304 80.1905 69.0597 80.3049C68.9889 80.4194 68.8946 80.5248 68.7738 80.6122C68.65 80.6995 68.5085 80.7718 68.3434 80.823C68.1813 80.8742 68.0074 80.8983 67.8247 80.8983C67.6154 80.8983 67.4916 80.9104 67.4504 80.9345C67.4091 80.9586 67.3885 81.0399 67.3885 81.1785C67.3885 81.2809 67.4091 81.3592 67.4504 81.4164C67.4916 81.4707 67.5712 81.5369 67.6891 81.6122C67.8158 81.6875 67.9308 81.7147 68.031 81.6966C68.1312 81.6785 68.2373 81.6785 68.3464 81.6966C68.3552 81.79 68.3287 81.8562 68.2639 81.8924C68.199 81.9285 68.1224 81.9496 68.031 81.9556C67.9396 81.9617 67.8483 81.9556 67.751 81.9345C67.6567 81.9165 67.5889 81.8984 67.5535 81.8773L67.5506 81.8803ZM68.2756 79.9796C68.0929 80.0278 67.9721 80.1031 67.9131 80.2115C67.8542 80.32 67.8836 80.4103 68.0015 80.4826C68.0369 80.5098 68.0693 80.5308 68.09 80.5459C68.1106 80.561 68.1371 80.564 68.1636 80.561C68.1902 80.558 68.2285 80.5429 68.2727 80.5188C68.3169 80.4947 68.3847 80.4616 68.479 80.4134C68.7708 80.2748 68.8887 80.1453 68.8327 80.0308C68.7796 79.9163 68.591 79.8983 68.2727 79.9826L68.2756 79.9796Z" fill="#007EB2"/>
<path d="M84.5219 80.4435C84.6486 80.3953 84.7371 80.3742 84.7872 80.3802C84.8373 80.3832 84.799 80.4525 84.6722 80.5821C84.6427 80.6092 84.5867 80.6513 84.5013 80.7086C84.4128 80.7658 84.3067 80.826 84.18 80.8893C84.0533 80.9556 83.9177 81.0248 83.7762 81.1002C83.6347 81.1755 83.4962 81.2447 83.3577 81.311C82.7564 81.6183 82.1669 81.802 81.5863 81.8623C81.0056 81.9225 80.5134 81.8562 80.1037 81.6604C79.9563 81.5851 79.8119 81.4978 79.6645 81.3954C79.5201 81.2929 79.4081 81.1905 79.3374 81.0881C79.246 80.9947 79.1635 80.8682 79.0927 80.7116C79.022 80.5549 78.9601 80.3832 78.9159 80.2025C78.8717 80.0218 78.8393 79.835 78.8216 79.6452C78.8039 79.4525 78.8068 79.2808 78.8363 79.1211C78.8658 78.9163 78.9395 78.6663 79.0632 78.3741C79.187 78.0819 79.3374 77.7746 79.5142 77.4523C79.6911 77.13 79.8885 76.8047 80.1096 76.4763C80.3277 76.145 80.5517 75.8317 80.7875 75.5335C81.0203 75.2353 81.2473 74.9702 81.4713 74.7383C81.6953 74.5063 81.9016 74.3226 82.0932 74.1931C82.7033 73.7563 82.8949 73.8798 82.668 74.5696C82.6031 74.8015 82.497 74.9732 82.3467 75.0787C82.1964 75.1871 81.9753 75.2775 81.6835 75.3498C81.6364 75.3588 81.5656 75.401 81.4654 75.4763C81.3652 75.5516 81.2679 75.6359 81.1707 75.7353C81.0734 75.8347 80.9909 75.9281 80.9172 76.0215C80.8435 76.1149 80.8081 76.1812 80.8081 76.2173C80.8081 76.2354 80.926 76.2504 81.1559 76.2655C81.3888 76.2805 81.6688 76.2866 81.996 76.2866C82.8065 76.2866 83.2633 76.3378 83.3636 76.4402C83.4726 76.5517 83.4873 76.627 83.4107 76.6691C83.3341 76.7113 83.1661 76.6993 82.9126 76.636C82.7741 76.5878 82.5943 76.5697 82.3732 76.5788C82.1492 76.5878 81.878 76.6149 81.5597 76.6631C81.3505 76.6993 81.1795 76.7324 81.0528 76.7595C80.926 76.7866 80.814 76.8258 80.7168 76.877C80.6225 76.9282 80.534 76.9914 80.4515 77.0667C80.369 77.1421 80.2747 77.2445 80.1656 77.374C79.865 77.7264 79.6439 78.0939 79.5024 78.4765C79.3609 78.859 79.2961 79.2265 79.3108 79.579C79.3256 79.9344 79.414 80.2597 79.5761 80.5579C79.7412 80.8562 79.9829 81.0971 80.3012 81.2839C80.4751 81.3773 80.6873 81.4405 80.9378 81.4707C81.1884 81.5008 81.4566 81.5068 81.7454 81.4767C82.0313 81.4496 82.3261 81.3923 82.6267 81.302C82.9273 81.2146 83.2132 81.0941 83.4874 80.9465C83.7055 80.8351 83.9177 80.7296 84.124 80.6333C84.3303 80.5369 84.463 80.4736 84.5278 80.4465L84.5219 80.4435ZM84.6162 73.1809C84.7606 73.2382 84.9169 73.3165 85.0819 73.4189C85.244 73.5213 85.3914 73.6298 85.5181 73.7412C85.6449 73.8527 85.751 73.9641 85.8394 74.0756C85.9278 74.187 85.9691 74.2864 85.9691 74.3678C85.9691 74.4973 85.9308 74.5485 85.8541 74.5214C85.7775 74.4913 85.6773 74.3919 85.5594 74.2141C85.3767 73.943 85.1291 73.7473 84.8166 73.6207C84.5013 73.4942 84.0474 73.431 83.4579 73.431C83.2398 73.431 83.0511 73.437 82.892 73.446C82.7328 73.4551 82.5884 73.4701 82.4616 73.4942C82.3349 73.5153 82.2141 73.5484 82.0991 73.5906C81.9871 73.6328 81.8604 73.687 81.7248 73.7503C81.3416 73.937 81.097 74.0093 80.9938 73.9671C80.8877 73.925 80.9643 73.7924 81.2178 73.5695C81.374 73.4279 81.5892 73.3135 81.8663 73.2201C82.1433 73.1267 82.444 73.0635 82.7623 73.0243C83.0806 72.9882 83.4048 72.9791 83.732 73.0032C84.0592 73.0273 84.3568 73.0845 84.6192 73.1779L84.6162 73.1809Z" fill="#007EB2"/>
<path d="M87.49 81.9376C87.4605 81.8894 87.4428 81.8261 87.4281 81.7418C87.4133 81.6574 87.4163 81.5821 87.434 81.5189C87.4428 81.4526 87.4723 81.3502 87.5224 81.2026C87.5725 81.058 87.6285 80.9104 87.6874 80.7568C87.7464 80.6031 87.8053 80.4646 87.8643 80.3381C87.9232 80.2115 87.9675 80.1272 87.994 80.079C88.0117 80.0609 88.05 79.9886 88.1089 79.8621C88.1679 79.7356 88.2357 79.588 88.3152 79.4133C88.3919 79.2416 88.4744 79.0548 88.5628 78.856C88.6483 78.6572 88.7279 78.4705 88.8016 78.2988C88.8753 78.1271 88.9342 77.9765 88.9784 77.853C89.0256 77.7264 89.0462 77.6541 89.0462 77.6361C89.0462 77.618 89.0727 77.5427 89.1287 77.4132C89.1847 77.2836 89.2584 77.1089 89.3557 76.889C89.45 76.6691 89.5679 76.4161 89.7035 76.1269C89.8391 75.8377 89.9864 75.5275 90.1397 75.1901C90.2399 74.9762 90.3254 74.8015 90.3932 74.666C90.461 74.5304 90.5199 74.428 90.57 74.3587C90.6201 74.2895 90.6643 74.2413 90.7056 74.2172C90.7469 74.1961 90.794 74.187 90.85 74.1961C90.9945 74.2141 91.0652 74.2804 91.0623 74.3919C91.0564 74.5033 90.9768 74.6419 90.8235 74.8106C90.7587 74.8768 90.6732 75.0034 90.5641 75.1871C90.4551 75.3708 90.346 75.5697 90.237 75.7805C90.1279 75.9914 90.0307 76.1872 89.9511 76.3679C89.8685 76.5486 89.8273 76.6631 89.8273 76.7083C89.8273 76.7264 89.8066 76.7866 89.7654 76.889C89.7241 76.9914 89.677 77.1029 89.621 77.2234C89.5119 77.4855 89.4117 77.7114 89.3203 77.9072C89.229 78.103 89.1464 78.2837 89.0757 78.4524C89.002 78.6181 88.9313 78.7837 88.8576 78.9404C88.7839 79.097 88.7073 79.2657 88.6247 79.4434C88.4243 79.8892 88.2681 80.2477 88.1531 80.5128C88.0382 80.7778 87.9586 80.9857 87.9144 81.1423C87.8672 81.296 87.8495 81.4074 87.8584 81.4767C87.8672 81.546 87.8938 81.6092 87.9409 81.6635C88.0058 81.7297 88.0411 81.7839 88.05 81.8231C88.0588 81.8653 88.0323 81.9195 87.9675 81.9827C87.8849 82.0852 87.8024 82.1334 87.714 82.1303C87.6255 82.1273 87.5519 82.0581 87.49 81.9285V81.9376Z" fill="#007EB2"/>
<path d="M92.1617 80.7929C92.3709 80.3471 92.536 80.0549 92.6598 79.9193C92.7836 79.7838 92.8926 79.7718 92.9928 79.8832C93.0017 79.9013 92.9634 80.0127 92.8779 80.2115C92.7895 80.4103 92.6745 80.6423 92.5301 80.9044C92.3562 81.2598 92.2206 81.5128 92.1204 81.6725C92.0202 81.8321 91.9377 81.9105 91.8728 81.9105C91.7549 81.9105 91.696 81.8833 91.696 81.8261C91.696 81.8171 91.7372 81.7086 91.8256 81.5038C91.9141 81.299 92.0231 81.061 92.1617 80.7899V80.7929ZM93.0223 78.8229C93.0754 78.7777 93.1314 78.7566 93.1844 78.7687C93.2404 78.7777 93.2876 78.8048 93.3288 78.844C93.3701 78.8831 93.3996 78.9404 93.4173 79.0036C93.4349 79.0699 93.432 79.1392 93.4025 79.2145C93.3554 79.353 93.2935 79.4193 93.2109 79.4103C93.1284 79.4012 93.0547 79.3259 92.9928 79.1874C92.9457 79.085 92.928 79.0097 92.9398 78.9645C92.9486 78.9163 92.9752 78.8711 93.0223 78.8229Z" fill="#007EB2"/>
<path d="M99.2001 81.8382C99.1471 81.8201 99.0822 81.8231 99.0085 81.8532C98.8818 81.8803 98.7433 81.8592 98.5988 81.79C98.4515 81.7207 98.3778 81.6333 98.3778 81.5309C98.3778 81.4948 98.3689 81.4646 98.3513 81.4466C98.3336 81.4285 98.2953 81.4225 98.2363 81.4315C98.1774 81.4405 98.086 81.4646 97.9622 81.5008C97.8384 81.5369 97.6675 81.5881 97.4493 81.6544C96.3824 82.0099 95.8518 81.9767 95.8518 81.558C95.8518 81.5219 95.8872 81.4646 95.9609 81.3923C96.0346 81.3201 96.1259 81.2357 96.2409 81.1484C96.3559 81.061 96.4796 80.9736 96.6093 80.8893C96.739 80.805 96.8658 80.7296 96.9837 80.6664C97.302 80.5067 97.5555 80.4375 97.7411 80.4555C97.9268 80.4736 98.0359 80.5851 98.0624 80.7899C98.0801 80.9194 98.1096 80.9857 98.1449 80.9857C98.1803 80.9857 98.2894 80.9194 98.4721 80.7899C98.5812 80.7146 98.6666 80.6694 98.7256 80.6513C98.7845 80.6332 98.8376 80.6453 98.8818 80.6935C98.926 80.7417 98.9496 80.7809 98.9437 80.814C98.9408 80.8471 98.9142 80.8953 98.87 80.9616C98.817 81.0279 98.7875 81.0881 98.7875 81.1423C98.7875 81.1965 98.817 81.2869 98.87 81.4074C98.9525 81.6213 99.0351 81.7147 99.1176 81.6875C99.1707 81.7177 99.2031 81.7418 99.2119 81.7659C99.2208 81.79 99.2178 81.8141 99.1972 81.8412L99.2001 81.8382ZM97.2607 81.3923C97.6056 81.2899 97.8119 81.1845 97.8767 81.076C97.9416 80.9706 97.8296 80.9164 97.5466 80.9164C97.3904 80.9164 97.2106 80.9525 97.0013 81.0279C96.7921 81.1032 96.6093 81.2056 96.4561 81.3351C96.3735 81.4104 96.3588 81.4737 96.4089 81.5309C96.459 81.5851 96.5386 81.5972 96.6477 81.558C96.7125 81.5399 96.8009 81.5098 96.9218 81.4737C97.0397 81.4375 97.1546 81.4074 97.2637 81.3893L97.2607 81.3923Z" fill="#007EB2"/>
<path d="M102.454 81.7839C102.31 81.7086 102.195 81.6363 102.112 81.5671C102.03 81.4978 101.985 81.4406 101.974 81.3984C101.965 81.3562 101.991 81.3381 102.056 81.3442C102.121 81.3472 102.221 81.3863 102.357 81.4616C102.448 81.5098 102.551 81.5399 102.672 81.558C102.79 81.5761 102.905 81.5821 103.014 81.5731C103.123 81.564 103.217 81.546 103.294 81.5189C103.371 81.4918 103.415 81.4496 103.424 81.3923C103.424 81.3442 103.412 81.2929 103.391 81.2327C103.368 81.1725 103.324 81.1092 103.262 81.0429C103.061 80.82 102.926 80.6363 102.858 80.4917C102.79 80.3471 102.793 80.2266 102.864 80.1362C102.946 80.0429 103.088 79.9435 103.288 79.835C103.489 79.7296 103.707 79.6332 103.943 79.5488C104.181 79.4645 104.411 79.4012 104.632 79.3621C104.856 79.3199 105.03 79.3139 105.157 79.341C105.34 79.3982 105.419 79.5067 105.396 79.6693C105.372 79.832 105.251 80.0067 105.033 80.1935C104.85 80.3531 104.724 80.4375 104.65 80.4465C104.576 80.4555 104.603 80.3802 104.732 80.2236C104.898 80.0459 104.951 79.9314 104.898 79.8742C104.842 79.82 104.674 79.8079 104.391 79.8471C104.246 79.8651 104.105 79.8953 103.966 79.9314C103.828 79.9676 103.707 80.0097 103.604 80.0579C103.497 80.1061 103.415 80.1543 103.35 80.2055C103.285 80.2567 103.256 80.3049 103.256 80.3531C103.256 80.3893 103.282 80.4495 103.338 80.5339C103.391 80.6182 103.462 80.7086 103.545 80.7989C103.719 81.0128 103.807 81.2146 103.81 81.3984C103.813 81.5851 103.76 81.7267 103.645 81.8321C103.533 81.9346 103.368 81.9888 103.153 81.9918C102.94 81.9948 102.705 81.9285 102.448 81.79L102.454 81.7839Z" fill="#007EB2"/>
<path d="M108.467 80.7929C108.676 80.3471 108.841 80.0549 108.965 79.9193C109.089 79.7838 109.198 79.7718 109.298 79.8832C109.307 79.9013 109.269 80.0127 109.183 80.2115C109.095 80.4103 108.98 80.6423 108.835 80.9044C108.661 81.2598 108.526 81.5128 108.426 81.6725C108.325 81.8321 108.243 81.9105 108.178 81.9105C108.06 81.9105 108.001 81.8833 108.001 81.8261C108.001 81.8171 108.042 81.7086 108.131 81.5038C108.219 81.299 108.328 81.061 108.467 80.7899V80.7929ZM109.328 78.8229C109.381 78.7777 109.437 78.7566 109.49 78.7687C109.546 78.7777 109.593 78.8048 109.634 78.844C109.675 78.8831 109.705 78.9404 109.722 79.0036C109.74 79.0699 109.737 79.1392 109.708 79.2145C109.661 79.353 109.599 79.4193 109.516 79.4103C109.434 79.4012 109.36 79.3259 109.298 79.1874C109.251 79.085 109.233 79.0097 109.245 78.9645C109.254 78.9163 109.28 78.8711 109.328 78.8229Z" fill="#007EB2"/>
<path d="M115.505 81.8382C115.452 81.8201 115.387 81.8231 115.314 81.8532C115.187 81.8803 115.048 81.8592 114.904 81.79C114.757 81.7207 114.683 81.6333 114.683 81.5309C114.683 81.4948 114.674 81.4646 114.656 81.4466C114.639 81.4285 114.6 81.4225 114.542 81.4315C114.483 81.4405 114.391 81.4646 114.267 81.5008C114.144 81.5369 113.973 81.5881 113.755 81.6544C112.688 82.0099 112.157 81.9767 112.157 81.558C112.157 81.5219 112.192 81.4646 112.266 81.3923C112.34 81.3201 112.431 81.2357 112.546 81.1484C112.661 81.061 112.785 80.9736 112.915 80.8893C113.044 80.805 113.171 80.7296 113.289 80.6664C113.607 80.5067 113.861 80.4375 114.046 80.4555C114.232 80.4736 114.341 80.5851 114.368 80.7899C114.385 80.9194 114.415 80.9857 114.45 80.9857C114.486 80.9857 114.595 80.9194 114.777 80.7899C114.886 80.7146 114.972 80.6694 115.031 80.6513C115.09 80.6332 115.143 80.6453 115.187 80.6935C115.231 80.7417 115.255 80.7809 115.249 80.814C115.246 80.8471 115.219 80.8953 115.175 80.9616C115.122 81.0279 115.093 81.0881 115.093 81.1423C115.093 81.1965 115.122 81.2869 115.175 81.4074C115.258 81.6213 115.34 81.7147 115.423 81.6875C115.476 81.7177 115.508 81.7418 115.517 81.7659C115.526 81.79 115.523 81.8141 115.502 81.8412L115.505 81.8382ZM113.566 81.3923C113.911 81.2899 114.117 81.1845 114.182 81.076C114.247 80.9706 114.135 80.9164 113.852 80.9164C113.696 80.9164 113.516 80.9525 113.307 81.0279C113.097 81.1032 112.915 81.2056 112.761 81.3351C112.679 81.4104 112.664 81.4737 112.714 81.5309C112.764 81.5851 112.844 81.5972 112.953 81.558C113.018 81.5399 113.106 81.5098 113.227 81.4737C113.345 81.4375 113.46 81.4074 113.569 81.3893L113.566 81.3923Z" fill="#007EB2"/>
<path d="M121.123 82.0761C121.105 82.049 121.105 81.9737 121.129 81.8532C121.153 81.7327 121.197 81.5972 121.259 81.4466C121.306 81.299 121.353 81.1453 121.403 80.9857C121.453 80.826 121.489 80.7146 121.506 80.6513C121.533 80.5399 121.53 80.4766 121.5 80.4615C121.471 80.4465 121.347 80.4555 121.138 80.4826C120.993 80.5007 120.799 80.57 120.557 80.6935C120.316 80.817 120.03 80.9827 119.702 81.1965C119.437 81.3743 119.196 81.5279 118.977 81.6574C118.759 81.7869 118.636 81.8532 118.609 81.8532C118.582 81.8532 118.553 81.8291 118.526 81.7839C118.5 81.7388 118.476 81.6906 118.459 81.6454C118.441 81.5881 118.432 81.5369 118.432 81.4857C118.432 81.4345 118.45 81.3773 118.485 81.311C118.521 81.2447 118.577 81.1664 118.65 81.073C118.724 80.9797 118.824 80.8622 118.951 80.7236C119.042 80.6212 119.11 80.5339 119.157 80.4585C119.204 80.3832 119.24 80.32 119.266 80.2688C119.293 80.2176 119.319 80.1784 119.349 80.1513C119.375 80.1242 119.414 80.1001 119.458 80.082C119.912 79.9525 119.941 80.1182 119.54 80.5851C119.467 80.6604 119.408 80.7266 119.364 80.7869C119.316 80.8471 119.305 80.8893 119.322 80.9074C119.523 80.8049 119.705 80.7086 119.87 80.6152C120.015 80.5399 120.153 80.4676 120.28 80.3983C120.407 80.329 120.486 80.2838 120.513 80.2658C120.548 80.2386 120.622 80.2025 120.731 80.1603C120.84 80.1181 120.964 80.085 121.1 80.0549C121.291 80.0188 121.433 80.0067 121.53 80.0188C121.627 80.0308 121.716 80.0639 121.795 80.1091C121.869 80.1573 121.922 80.2055 121.96 80.2567C121.996 80.3079 122.007 80.3802 121.996 80.4736C121.984 80.567 121.948 80.6845 121.892 80.823C121.839 80.9646 121.76 81.1483 121.66 81.3803C121.503 81.7357 121.388 81.9586 121.312 82.0581C121.235 82.1575 121.173 82.1635 121.129 82.0791L121.123 82.0761Z" fill="#007EB2"/>
<path d="M60.6978 27.2832C59.0207 27.7411 57.7798 28.5604 57.9213 29.1087C58.0068 29.44 58.5815 29.5967 59.3862 29.5695V30.9702C59.7723 30.7955 60.2144 30.6329 60.6948 30.5003C61.361 30.3166 61.9947 30.2202 62.5252 30.2021V28.8014C63.489 28.3646 64.0932 27.8345 63.9901 27.4429C63.8456 26.8947 62.369 26.8194 60.6919 27.2802L60.6978 27.2832Z" fill="#007EB2"/>
<path d="M60.6978 23.3372C61.3639 23.1534 61.9976 23.0571 62.5281 23.039V21.6383C63.492 21.2015 64.0962 20.6713 63.993 20.2798C63.8486 19.7315 62.3719 19.6562 60.6948 20.1171C59.0177 20.575 57.7769 21.3943 57.9184 21.9425C58.0038 22.2739 58.5786 22.4305 59.3832 22.4034V23.8041C59.7693 23.6294 60.2115 23.4667 60.6919 23.3342L60.6978 23.3372Z" fill="#007EB2"/>
<path d="M57.9243 25.5271C58.0097 25.8584 58.5845 26.0151 59.3891 25.988V27.3887C59.7752 27.214 60.2174 27.0513 60.6978 26.9188C61.3639 26.735 61.9976 26.6386 62.5281 26.6205V25.2198C63.492 24.7831 64.0962 24.2529 63.993 23.8613C63.8486 23.3131 62.3719 23.2378 60.6948 23.6987C59.0177 24.1565 57.7769 24.9759 57.9184 25.5241L57.9243 25.5271Z" fill="#007EB2"/>
<path d="M60.6978 30.8678C59.0207 31.3257 57.7798 32.145 57.9213 32.6932C58.0068 33.0246 58.5815 33.1812 59.3862 33.1541V36.2778L60.9572 41.7722L62.5281 36.2778V32.386C63.492 31.9492 64.0962 31.4191 63.993 31.0275C63.8486 30.4792 62.3719 30.4039 60.6948 30.8648L60.6978 30.8678Z" fill="#007EB2"/>
<path d="M59.3891 20.2225C59.7752 20.0478 60.2174 19.8851 60.6978 19.7526C61.3639 19.5689 61.9976 19.4725 62.5311 19.4544V17.8248H59.3891V20.2225Z" fill="#007EB2"/>
<path d="M71.4883 4.06178C69.714 -0.751801 67.0495 -0.309 63.7484 0.660945C62.8641 0.923011 59.7841 2.39299 58.8114 2.64C59.787 1.98031 60.2115 1.62185 60.8157 1.31159C56.2236 0.0374088 52.4921 -1.86031 50.3552 4.27565C48.9611 8.28195 49.639 12.8244 52.3182 16.2554C52.4774 16.6169 52.5953 17.141 52.669 17.8278H69.2542C69.3279 17.141 69.4458 16.6169 69.6049 16.2554C72.3313 12.7642 72.9856 8.11928 71.4913 4.06178H71.4883ZM70.3831 11.249C69.7582 3.869 68.09 1.38087 63.7307 2.31768C63.8781 2.25744 64.0284 2.20322 64.1699 2.16105C67.3413 1.22725 68.762 1.09471 70.0559 4.61001C70.8487 6.75775 70.9372 9.08321 70.3831 11.249Z" fill="#007EB2"/>
</svg>
