<svg width="30" height="30" viewBox="0 0 30 30" fill="none" xmlns="http://www.w3.org/2000/svg">
<circle cx="15" cy="15.0004" r="11.8085" fill="#007EB2"/>
<circle opacity="0.5" cx="15" cy="15" r="15" fill="#007EB2"/>
<path d="M15.4024 7.18799C11.9963 7.18799 9.24146 9.75916 9.24146 12.9382C9.24146 14.3676 9.68152 15.7065 10.4824 16.9141C11.3186 18.1791 12.4188 19.2635 13.2637 20.5285C13.6773 21.1446 13.9766 21.7196 14.2934 22.385C14.5223 22.8368 14.7071 23.6172 15.4024 23.6172C16.0977 23.6172 16.2826 22.8368 16.5026 22.385C16.8282 21.7196 17.1187 21.1446 17.5324 20.5285C18.3773 19.2717 19.4775 18.1874 20.3136 16.9141C21.1233 15.7065 21.5634 14.3676 21.5634 12.9382C21.5634 9.75916 18.8085 7.18799 15.4024 7.18799ZM15.4024 15.1972C14.1878 15.1972 13.2021 14.2772 13.2021 13.1436C13.2021 12.01 14.1878 11.0899 15.4024 11.0899C16.617 11.0899 17.6028 12.01 17.6028 13.1436C17.6028 14.2772 16.617 15.1972 15.4024 15.1972Z" fill="white"/>
</svg>
