<svg width="30" height="30" viewBox="0 0 30 30" fill="none" xmlns="http://www.w3.org/2000/svg">
<circle cx="15" cy="15.0004" r="11.8085" fill="#007EB2"/>
<circle opacity="0.5" cx="15" cy="15" r="15" fill="#007EB2"/>
<path d="M20.432 16.8387C19.6469 16.8387 18.8873 16.711 18.1788 16.4812C17.9554 16.4046 17.7064 16.4621 17.5341 16.6344L16.532 17.8918C14.7256 17.0301 13.0341 15.4025 12.1341 13.5323L13.3788 12.4727C13.5511 12.294 13.6022 12.045 13.532 11.8216C13.2958 11.1131 13.1745 10.3535 13.1745 9.56844C13.1745 9.22376 12.8873 8.93652 12.5426 8.93652H10.3341C9.98942 8.93652 9.57452 9.08971 9.57452 9.56844C9.57452 15.4982 14.5086 20.4259 20.432 20.4259C20.8852 20.4259 21.0639 20.0238 21.0639 19.6727V17.4706C21.0639 17.1259 20.7767 16.8387 20.432 16.8387Z" fill="white"/>
</svg>
