<svg width="87" height="86" viewBox="0 0 87 86" fill="none" xmlns="http://www.w3.org/2000/svg">
<path d="M57.28 85C53.59 85 50.41 82.44 49.72 78.9L46.32 61.27C45.88 59.03 43.86 57.4 41.5 57.4C39.14 57.4 37.12 59.03 36.68 61.27L33.28 78.9C32.59 82.44 29.42 85 25.72 85C21.78 85 18.5 82.13 18.08 78.31L16.75 66.24C16.27 61.87 15.33 57.55 13.94 53.37L11.34 45.51C9.12 38.83 8 31.88 8 24.85C8 18.32 13.46 13 20.18 13C25.13 13 29.91 14.19 35.05 16.63C39.39 18.69 43.61 18.69 47.94 16.63C53.08 14.19 57.87 13 62.56 13C69.54 13 75 18.32 75 24.85C75 31.87 73.88 38.83 71.67 45.52L69.07 53.38C67.69 57.55 66.74 61.88 66.26 66.25L64.93 78.32C64.51 82.13 61.22 85.01 57.29 85.01L57.28 85ZM41.5 54.4C45.32 54.4 48.6 57.05 49.31 60.71L52.71 78.34C53.12 80.46 55.04 82 57.28 82C59.66 82 61.64 80.27 61.9 77.99L63.23 65.92C63.74 61.35 64.72 56.81 66.17 52.45L68.77 44.59C70.88 38.2 71.95 31.56 71.95 24.85C71.95 19.97 67.85 16 62.81 16C58.33 16 53.98 17.09 49.26 19.34C44.1 21.79 38.87 21.79 33.72 19.34C29 17.1 24.65 16 20.43 16C15.14 16 11.04 19.97 11.04 24.85C11.04 31.56 12.11 38.2 14.22 44.59L16.82 52.45C18.27 56.82 19.26 61.35 19.76 65.92L21.09 77.99C21.34 80.28 23.33 82 25.71 82C27.95 82 29.86 80.46 30.28 78.33L33.68 60.7C34.38 57.05 37.67 54.39 41.49 54.39L41.5 54.4Z" fill="#7CB9CC"/>
<path d="M24.0494 52.1243C25.7907 52.7686 25.7907 55.2314 24.0494 55.8757L21.2681 56.9049C20.1733 57.31 19.31 58.1733 18.9049 59.2681L17.8757 62.0494C17.2314 63.7907 14.7686 63.7907 14.1243 62.0494L13.0951 59.2681C12.69 58.1733 11.8267 57.31 10.7319 56.9049L7.95055 55.8757C6.20932 55.2314 6.20931 52.7686 7.95056 52.1243L10.7319 51.0951C11.8267 50.69 12.69 49.8267 13.0951 48.7319L14.1243 45.9505C14.7686 44.2093 17.2314 44.2093 17.8757 45.9506L18.9049 48.7319C19.31 49.8267 20.1733 50.69 21.2681 51.0951L24.0494 52.1243Z" fill="white" stroke="#7CB9CC" stroke-width="2"/>
<path d="M79.0494 14.1243C80.7907 14.7686 80.7907 17.2314 79.0494 17.8757L76.2681 18.9049C75.1733 19.31 74.31 20.1733 73.9049 21.2681L72.8757 24.0494C72.2314 25.7907 69.7686 25.7907 69.1243 24.0494L68.0951 21.2681C67.69 20.1733 66.8267 19.31 65.7319 18.9049L62.9505 17.8757C61.2093 17.2314 61.2093 14.7686 62.9506 14.1243L65.7319 13.0951C66.8267 12.69 67.69 11.8267 68.0951 10.7319L69.1243 7.95055C69.7686 6.20931 72.2314 6.20931 72.8757 7.95055L73.9049 10.7319C74.31 11.8267 75.1733 12.69 76.2681 13.0951L79.0494 14.1243Z" fill="white" stroke="#7CB9CC" stroke-width="2"/>
</svg>
