<svg width="70" height="70" viewBox="0 0 70 70" fill="none" xmlns="http://www.w3.org/2000/svg">
<g clip-path="url(#clip0_27_928)">
<path d="M35 70C25.64 70 16.85 66.35 10.24 59.72C3.63 53.1 0 44.29 0 34.94C0 31.3 0.57 27.69 1.69 24.2C2.45 21.85 4.63 20.27 7.13 20.27C7.57 20.27 8.01 20.32 8.44 20.42L9.3 20.62L9.6 19.79C10.18 18.2 10.94 16.66 11.86 15.21L12.31 14.5L11.68 13.94C10.13 12.54 8.68 10.98 7.37 9.27001C6.48 8.05001 6.11 6.53001 6.35 5.01001C6.59 3.49001 7.41 2.16001 8.65 1.26001C9.64 0.54001 10.81 0.16001 12.03 0.16001C13.77 0.16001 15.39 0.93001 16.48 2.28001C20.93 8.06001 27.69 11.38 34.99 11.38C42.29 11.38 49.04 8.05001 53.51 2.26001C54.61 0.83001 56.27 0.0100098 58.07 0.0100098C59.35 0.0100098 60.56 0.43001 61.58 1.21001C64.09 3.14001 64.56 6.76001 62.63 9.28001C61.34 10.95 59.89 12.52 58.32 13.95L57.7 14.51L58.14 15.22C59.05 16.68 59.81 18.22 60.39 19.8L60.69 20.63L61.55 20.43C61.97 20.33 62.41 20.29 62.84 20.29C65.38 20.29 67.53 21.85 68.31 24.26C69.43 27.72 69.99 31.34 69.99 35C69.99 54.3 54.29 70.01 34.99 70.01L35 70ZM7.14 22.75C5.73 22.75 4.49 23.64 4.07 24.97C0.83 35.01 2.51 45.64 8.69 54.13C14.87 62.62 24.47 67.49 35.03 67.49C43.72 67.48 51.88 64.08 58.01 57.92C64.14 51.76 67.51 43.58 67.49 34.89C67.49 31.55 66.97 28.22 65.94 25.01C65.51 23.66 64.26 22.76 62.85 22.76C62.51 22.76 62.18 22.81 61.85 22.92C61.53 23.01 61.21 23.17 60.89 23.41C60.85 23.44 60.77 23.49 60.7 23.55C53.12 29.02 44.26 31.89 35 31.89C25.79 31.89 16.96 29.05 9.47 23.68L9.12 23.43C8.52 22.99 7.85 22.77 7.14 22.77V22.75ZM13.7 16.97C12.91 18.3 12.24 19.77 11.73 21.32L11.49 22.04L12.12 22.46C18.91 26.98 26.82 29.37 34.99 29.37C43.16 29.37 51.07 26.98 57.86 22.46L58.49 22.04L58.25 21.32C57.74 19.77 57.07 18.31 56.28 16.97L55.73 16.05L54.85 16.66C49.02 20.71 42.15 22.86 34.98 22.86C27.81 22.86 20.95 20.72 15.12 16.66L14.24 16.05L13.69 16.97H13.7ZM14.88 13.36C20.54 17.88 27.68 20.36 35 20.37C42.3 20.37 49.44 17.89 55.1 13.38L55.22 13.27C55.22 13.27 55.32 13.2 55.37 13.16C57.34 11.56 59.11 9.74001 60.64 7.74001C61.17 7.05001 61.4 6.20001 61.29 5.33001C61.18 4.47001 60.73 3.71001 60.04 3.18001C59.48 2.74001 58.79 2.51001 58.07 2.51001C57.05 2.51001 56.12 2.97001 55.5 3.78001C50.56 10.19 43.09 13.87 35 13.87C26.91 13.87 19.44 10.19 14.5 3.78001C13.88 2.97001 12.94 2.51001 11.92 2.51001C10.68 2.51001 9.56 3.21001 9.01 4.34001C8.46 5.46001 8.59 6.76001 9.35 7.75001C10.91 9.77001 12.69 11.61 14.65 13.19L14.74 13.26L14.79 13.28C14.79 13.28 14.85 13.33 14.89 13.36H14.88Z" fill="#7CB9CC"/>
<path d="M35.0002 59.59C31.3602 59.59 28.4102 56.63 28.4102 52.99C28.4102 49.35 31.3702 46.39 35.0002 46.39C38.6302 46.39 41.5902 49.35 41.5902 52.99C41.5902 56.62 38.6302 59.58 35.0002 59.59ZM35.0002 48.9C32.7402 48.9 30.9102 50.74 30.9102 53C30.9102 55.26 32.7502 57.09 35.0002 57.09C37.2502 57.09 39.0902 55.25 39.0902 53C39.0902 50.75 37.2502 48.9 35.0002 48.9Z" fill="#7CB9CC"/>
<path d="M29.6499 41.3C28.9599 41.3 28.3999 40.74 28.3999 40.05C28.3999 39.36 28.9599 38.8 29.6499 38.8H40.3399C41.0299 38.8 41.5899 39.36 41.5899 40.05C41.5899 40.74 41.0299 41.3 40.3399 41.3H29.6499Z" fill="#7CB9CC"/>
</g>
<defs>
<clipPath id="clip0_27_928">
<rect width="70" height="70" fill="white"/>
</clipPath>
</defs>
</svg>
