<svg width="94" height="86" viewBox="0 0 94 86" fill="none" xmlns="http://www.w3.org/2000/svg">
<path d="M91.9244 20.5071C90.8444 20.5071 89.9679 19.6306 89.9679 18.5506V15.4298C89.9679 12.8719 88.3177 10.5799 85.9542 9.85566C60.0672 1.92896 33.8136 1.92896 7.92853 9.85382C5.56134 10.5781 3.91109 12.8701 3.91109 15.428V18.5488C3.91109 19.6288 3.03463 20.5053 1.95463 20.5053C0.874632 20.5053 0 19.6306 0 18.5506V15.4298C0 11.1704 2.78892 7.33994 6.77886 6.11692C33.4286 -2.03897 60.4505 -2.03897 87.0983 6.11692C91.0919 7.33811 93.8809 11.1667 93.8809 15.4298V18.5506C93.8809 19.6306 93.0044 20.5071 91.9244 20.5071Z" fill="#7CB9CC"/>
<path d="M56.7191 39.0871H37.16C36.08 39.0871 35.2035 38.2106 35.2035 37.1306V27.352C35.2035 20.8812 40.4678 15.6169 46.9386 15.6169C53.4094 15.6169 58.6737 20.8812 58.6737 27.352V37.1306C58.6737 38.2106 57.7972 39.0871 56.7172 39.0871H56.7191ZM54.7626 35.176V27.352C54.7626 23.0375 51.2531 19.528 46.9386 19.528C42.6241 19.528 39.1146 23.0375 39.1146 27.352V35.176H54.7626Z" fill="#7CB9CC"/>
<path d="M76.2782 39.0871H56.7191C55.6391 39.0871 54.7626 38.2106 54.7626 37.1306V27.352C54.7626 20.8812 60.0269 15.6169 66.4977 15.6169C72.9685 15.6169 78.2328 20.8812 78.2328 27.352V37.1306C78.2328 38.2106 77.3564 39.0871 76.2764 39.0871H76.2782ZM74.3217 35.176V27.352C74.3217 23.0375 70.8122 19.528 66.4977 19.528C62.1832 19.528 58.6737 23.0375 58.6737 27.352V35.176H74.3217Z" fill="#7CB9CC"/>
<path d="M88.0133 39.0871H76.2782C75.1982 39.0871 74.3217 38.2106 74.3217 37.1306V27.9076C74.3217 23.1933 76.8485 18.8679 80.7559 16.8931C84.7256 14.8779 89.5774 15.3015 93.1052 17.9694C93.5948 18.3416 93.879 18.9155 93.879 19.5298V33.2214C93.879 36.4558 91.246 39.0889 88.0115 39.0889L88.0133 39.0871ZM78.2347 35.176H88.0133C89.0933 35.176 89.9698 34.2995 89.9698 33.2195V20.5804C88.116 19.5243 85.3179 18.9687 82.5216 20.3842C79.9161 21.6989 78.2347 24.6566 78.2347 27.9057V35.176Z" fill="#7CB9CC"/>
<path d="M37.1618 39.0871H17.6027C16.5227 39.0871 15.6462 38.2106 15.6462 37.1306V27.352C15.6462 20.8812 20.9105 15.6169 27.3813 15.6169C33.8521 15.6169 39.1164 20.8812 39.1164 27.352V37.1306C39.1164 38.2106 38.2399 39.0871 37.16 39.0871H37.1618ZM35.2053 35.176V27.352C35.2053 23.0375 31.6958 19.528 27.3813 19.528C23.0668 19.528 19.5573 23.0375 19.5573 27.352V35.176H35.2053Z" fill="#7CB9CC"/>
<path d="M17.6027 39.0871H5.86755C2.63306 39.0871 0 36.454 0 33.2195V19.528C0 18.9137 0.286043 18.3398 0.773784 17.9676C5.27163 14.5717 12.1367 15.0503 16.1266 19.0439C18.3398 21.2534 19.5573 24.2073 19.5573 27.352V37.1306C19.5573 38.2106 18.6808 39.0871 17.6008 39.0871H17.6027ZM3.91109 20.5768V33.2195C3.91109 34.2995 4.78756 35.176 5.86755 35.176H15.6462V27.352C15.6462 25.2507 14.8357 23.2832 13.3652 21.809C10.9283 19.3758 6.88337 18.8642 3.91109 20.5768Z" fill="#7CB9CC"/>
<path d="M46.9404 86C33.5239 86 20.1055 83.9629 6.77886 79.8812C2.78892 78.6619 0 74.8315 0 70.5683V67.4475C0 66.3675 0.876466 65.4911 1.95646 65.4911C3.03646 65.4911 3.91293 66.3675 3.91293 67.4475V70.5683C3.91293 73.1262 5.56317 75.4182 7.9267 76.1425C33.8099 84.0637 60.0654 84.06 85.9542 76.1425C88.3214 75.4182 89.9716 73.1262 89.9716 70.5683V67.4475C89.9716 66.3675 90.8481 65.4911 91.9281 65.4911C93.0081 65.4911 93.8845 66.3675 93.8845 67.4475V70.5683C93.8845 74.8278 91.0956 78.6582 87.1057 79.8812C73.779 83.961 60.3606 86 46.9441 86H46.9404Z" fill="#7CB9CC"/>
<path d="M46.9404 70.3813C40.4696 70.3813 35.2053 65.117 35.2053 58.6462V48.8675C35.2053 47.7876 36.0818 46.9111 37.1618 46.9111H56.7209C57.8009 46.9111 58.6774 47.7876 58.6774 48.8675V58.6462C58.6774 65.117 53.4131 70.3813 46.9423 70.3813H46.9404ZM39.1164 50.8222V58.6462C39.1164 62.9607 42.6259 66.4702 46.9404 66.4702C51.2549 66.4702 54.7645 62.9607 54.7645 58.6462V50.8222H39.1164Z" fill="#7CB9CC"/>
<path d="M66.4996 70.3813C60.0287 70.3813 54.7645 65.117 54.7645 58.6462V48.8675C54.7645 47.7876 55.6409 46.9111 56.7209 46.9111H76.28C77.36 46.9111 78.2365 47.7876 78.2365 48.8675V58.6462C78.2365 65.117 72.9722 70.3813 66.5014 70.3813H66.4996ZM58.6755 50.8222V58.6462C58.6755 62.9607 62.1851 66.4702 66.4996 66.4702C70.814 66.4702 74.3236 62.9607 74.3236 58.6462V50.8222H58.6755Z" fill="#7CB9CC"/>
<path d="M86.066 70.3685C84.2507 70.3685 82.4245 69.9541 80.754 69.1051C76.8503 67.1266 74.3236 62.803 74.3236 58.0906V48.8675C74.3236 47.7876 75.2 46.9111 76.28 46.9111H88.0151C91.2496 46.9111 93.8827 49.5442 93.8827 52.7786V66.4702C93.8827 67.0845 93.5966 67.6602 93.1089 68.0306C91.0626 69.5763 88.5744 70.3703 86.0678 70.3703L86.066 70.3685ZM78.2347 58.0906C78.2347 61.3453 79.9161 64.2992 82.5216 65.6121C85.3179 67.0276 88.116 66.4684 89.9698 65.4159V52.7768C89.9698 51.6968 89.0933 50.8204 88.0133 50.8204H78.2347V58.0906Z" fill="#7CB9CC"/>
<path d="M27.3813 70.3813C20.9105 70.3813 15.6462 65.117 15.6462 58.6462V48.8675C15.6462 47.7876 16.5227 46.9111 17.6027 46.9111H37.1618C38.2418 46.9111 39.1182 47.7876 39.1182 48.8675V58.6462C39.1182 65.117 33.854 70.3813 27.3831 70.3813H27.3813ZM19.5573 50.8222V58.6462C19.5573 62.9607 23.0668 66.4702 27.3813 66.4702C31.6958 66.4702 35.2053 62.9607 35.2053 58.6462V50.8222H19.5573Z" fill="#7CB9CC"/>
<path d="M7.82402 70.3813C5.28447 70.3813 2.78159 69.5488 0.775617 68.0306C0.286043 67.6584 0 67.0826 0 66.4684V52.7768C0 49.5423 2.63306 46.9111 5.86755 46.9111H17.6027C18.6827 46.9111 19.5591 47.7876 19.5591 48.8675V58.6462C19.5591 61.7908 18.3434 64.7448 16.1321 66.9543C13.9208 69.1638 10.9687 70.3813 7.82402 70.3813ZM3.91293 65.4214C6.88154 67.1395 10.9265 66.6224 13.367 64.1855C14.8376 62.715 15.648 60.7475 15.648 58.6462V50.8222H5.86755C4.78756 50.8222 3.91109 51.6986 3.91109 52.7786V65.4214H3.91293Z" fill="#7CB9CC"/>
</svg>
