<svg width="64" height="86" viewBox="0 0 64 86" fill="none" xmlns="http://www.w3.org/2000/svg">
<path d="M56.6205 5.06107C52.8764 1.70201 48.2813 0.000128552 42.9608 0.000128552H42.9023C40.7157 0.00700483 38.474 0.574298 36.418 1.64012C33.4027 3.20619 29.803 3.20447 26.7878 1.64012C24.73 0.574298 22.4884 0.00700483 20.3017 0.000128552C14.9262 -0.0170621 10.3414 1.68997 6.58182 5.06107C2.10536 9.07338 -0.284146 15.0626 0.0270051 21.504C0.336438 27.5155 2.36666 35.6347 10.2898 40.1765C10.6027 40.3553 10.9551 40.4498 11.3144 40.4498L15.4918 40.4533V50.8003C15.4918 51.9384 16.4149 52.8632 17.5546 52.8632H19.7258L20.0353 54.5307C20.0387 54.5634 20.0456 54.5978 20.0524 54.6321L20.7899 58.6101C20.6988 58.598 20.6146 58.5671 20.5217 58.5671C19.382 58.5671 18.4589 59.492 18.4589 60.63C18.4589 62.1685 19.5831 63.322 21.8128 64.1266L22.8717 69.8425C22.7445 69.8184 22.6207 69.784 22.4866 69.784C21.3469 69.784 20.4238 70.7089 20.4238 71.8469C20.4238 73.7001 22.1325 74.6903 23.8722 75.2386L25.5535 84.3136C25.7357 85.29 26.5883 86 27.582 86H35.6135C36.6071 86 37.4597 85.29 37.642 84.3136L39.3249 75.2369C41.0698 74.6885 42.7734 73.6983 42.7734 71.8486C42.7734 70.7106 41.8485 69.7857 40.7105 69.7857C40.5764 69.7857 40.4526 69.8184 40.3271 69.8442L41.3878 64.1266C43.6209 63.3203 44.74 62.1703 44.74 60.6317C44.74 59.4937 43.8151 58.5688 42.6771 58.5688C42.5843 58.5688 42.5 58.5998 42.4089 58.6118L43.1464 54.6339C43.1516 54.6029 43.1567 54.5703 43.1619 54.5376L43.4713 52.8649H45.6408C46.7788 52.8649 47.7037 51.9401 47.7037 50.8021V40.4722L51.8655 40.4756C52.2248 40.4756 52.5772 40.3828 52.8884 40.204C60.87 35.6416 62.8831 27.507 63.165 21.4919C63.4882 15.0523 61.1021 9.06478 56.6205 5.06107ZM35.5533 71.7988C35.433 71.816 35.3143 71.8349 35.1321 71.8503C32.973 72.0979 30.274 72.1031 28.0049 71.8452C27.8776 71.8349 27.759 71.816 27.5992 71.7936C27.5338 71.785 27.4857 71.7747 27.4221 71.7644L26.1878 65.1013C26.3975 65.1322 26.6107 65.1614 26.7774 65.1752C28.2696 65.3454 29.8907 65.4331 31.596 65.4331C33.3013 65.4331 34.9224 65.3471 36.3527 65.1821C36.5864 65.1615 36.8048 65.1305 37.0042 65.103L35.7699 71.7695C35.6977 71.7781 35.6306 71.7885 35.5533 71.8005V71.7988ZM29.2959 81.8708L28.2077 76.0002C29.2752 76.0999 30.3995 76.1618 31.596 76.1618C32.7925 76.1618 33.9408 76.0999 34.9843 76.0002L33.8961 81.8691H29.2942L29.2959 81.8708ZM39.086 53.8654C39.0791 53.8964 39.0739 53.9308 39.0688 53.9652L37.8001 60.8036C37.4013 60.8758 36.9715 60.948 36.4833 61.0116C36.3286 61.034 36.1704 61.0563 35.9435 61.0769C33.2686 61.3829 29.9783 61.3898 27.1849 61.0718C27.0198 61.0563 26.8634 61.034 26.6795 61.0065C26.1998 60.9429 25.7804 60.8741 25.3884 60.8036L24.1215 53.972C24.118 53.9359 24.1112 53.8998 24.1043 53.8654L23.9186 52.8632H39.2699L39.086 53.8654ZM41.7746 48.7357C41.7368 48.7357 41.7024 48.7357 41.6646 48.7357H21.5308C21.493 48.7357 21.4535 48.7357 21.4157 48.7357H19.6175V40.4533L43.5779 40.467V48.7357H41.7746ZM51.3 36.3464L11.8817 36.3223C5.95092 32.6504 4.39516 26.154 4.1459 21.296C3.89491 16.1095 5.78589 11.3116 9.33405 8.13133C12.2994 5.47193 15.9679 4.12418 20.2398 4.12418H20.288C21.8196 4.12761 23.4098 4.53503 24.8847 5.30002C29.0913 7.48152 34.111 7.48152 38.3141 5.30002C39.7891 4.53331 41.3792 4.12761 42.9109 4.12418H42.959C47.2292 4.12418 50.8994 5.47193 53.8683 8.13476C57.4181 11.3047 59.3039 16.0958 59.0427 21.2856C58.8123 26.154 57.272 32.6573 51.2965 36.3447L51.3 36.3464Z" fill="#7CB9CC"/>
</svg>
