<svg width="80" height="87" viewBox="0 0 80 87" fill="none" xmlns="http://www.w3.org/2000/svg">
<path d="M58.1041 86C53.7479 86 49.9993 82.9362 49.1947 78.7118L45.1801 57.6519C44.6667 54.9745 42.2782 53.0328 39.4992 53.0328C36.7201 53.0328 34.3316 54.9745 33.8216 57.6519L29.807 78.7068C28.999 82.9346 25.2538 85.9983 20.8942 85.9983C16.2518 85.9983 12.3769 82.565 11.8804 78.0114L10.3082 63.5913C9.74097 58.3742 8.62834 53.2075 6.99727 48.2221L3.93039 38.8344C1.32472 30.8491 0 22.5464 0 14.1547C0 6.34922 6.4418 0 14.3632 0C20.199 0 25.8362 1.41934 31.901 4.33863C37.0147 6.80441 41.9887 6.80441 47.0974 4.33863C53.1638 1.41934 58.801 0 64.3322 0C72.5582 0 79.0017 6.34922 79.0017 14.1547C79.0017 22.5431 77.677 30.8491 75.0696 38.8411L72.0027 48.2255C70.3717 53.2091 69.259 58.3775 68.6918 63.5946L67.1196 78.0148C66.6247 82.5684 62.7499 86.0017 58.1058 86.0017L58.1041 86ZM39.4992 49.45C44.0019 49.45 47.8767 52.6179 48.7032 56.9851L52.7177 78.04C53.2025 80.5729 55.4682 82.4156 58.1041 82.4156C60.9084 82.4156 63.2498 80.3546 63.5478 77.6251L65.1199 63.205C65.7158 57.7477 66.8823 52.329 68.5891 47.1119L71.656 37.7275C74.1438 30.0983 75.4079 22.1652 75.4079 14.153C75.4079 8.32285 70.5753 3.58277 64.6351 3.58277C59.3497 3.58277 54.2242 4.88789 48.6594 7.56699C42.5795 10.4947 36.4138 10.4947 30.3389 7.56699C24.7724 4.88621 19.6486 3.58277 14.6678 3.58277C8.42299 3.58277 3.59037 8.32285 3.59037 14.153C3.59037 22.1652 4.8545 30.0983 7.34571 37.7275L10.4126 47.1119C12.1177 52.329 13.2859 57.7443 13.8784 63.2016L15.4506 77.6217C15.7485 80.3563 18.0899 82.4156 20.8942 82.4156C23.5302 82.4156 25.7924 80.5729 26.2772 78.0366L30.2918 56.9817C31.1216 52.6179 34.9965 49.45 39.4992 49.45Z" fill="#7CB9CC"/>
<path d="M20.332 86C19.3809 86 18.5865 85.2542 18.5393 84.2901L18.4855 83.1429C17.5479 63.3158 16.3814 38.6412 29.0075 18.747C29.536 17.9088 30.6453 17.6619 31.4852 18.191C32.3218 18.7184 32.5726 19.8287 32.0424 20.6635C20.024 39.602 21.1618 63.6484 22.0742 82.9749L22.128 84.1221C22.1751 85.1114 21.4093 85.9496 20.4195 85.9966C20.3909 86 20.3589 86 20.3337 86H20.332Z" fill="#7CB9CC"/>
<path d="M23.3416 35.8328C23.0723 35.8328 22.7996 35.7723 22.5404 35.643L21.7796 35.2667C17.2079 32.984 14.3649 28.3934 14.3649 23.2905C14.3649 22.3012 15.1695 21.4983 16.1609 21.4983C17.1523 21.4983 17.9569 22.3012 17.9569 23.2905C17.9569 27.0279 20.0391 30.3889 23.3905 32.0585L24.1479 32.4348C25.035 32.8799 25.3935 33.9549 24.9525 34.8384C24.6327 35.4683 24.0015 35.8311 23.3433 35.8311L23.3416 35.8328Z" fill="#7CB9CC"/>
<path d="M22.4933 46.5828H21.5456C20.5542 46.5828 19.7496 45.7799 19.7496 44.7905C19.7496 43.8012 20.5542 42.9983 21.5456 42.9983H22.4933C26.7586 42.9983 30.5981 40.63 32.5086 36.8204C32.9547 35.9352 34.032 35.5808 34.9174 36.0175C35.8044 36.4627 36.163 37.5377 35.7219 38.4212C33.1971 43.4552 28.1305 46.5811 22.4933 46.5811V46.5828Z" fill="#7CB9CC"/>
<path d="M58.668 86H58.5822C57.5907 85.953 56.8265 85.1148 56.8737 84.1255L56.9275 82.9782C57.8399 63.6534 58.9777 39.6054 46.9593 20.6669C46.4274 19.8321 46.6749 18.7252 47.5165 18.1944C48.3531 17.667 49.4623 17.9105 49.9942 18.7504C62.6203 38.6446 61.4521 63.3192 60.5162 83.1462L60.4624 84.2934C60.4186 85.2542 59.6258 85.9983 58.6697 85.9983L58.668 86Z" fill="#7CB9CC"/>
<path d="M55.6601 35.8328C54.9985 35.8328 54.3673 35.4716 54.0509 34.8434C53.6048 33.9582 53.9684 32.8832 54.8555 32.4398L55.6129 32.0636C58.9626 30.3906 61.0465 27.0295 61.0465 23.2922C61.0465 22.3029 61.851 21.5 62.8425 21.5C63.8339 21.5 64.6385 22.3029 64.6385 23.2922C64.6385 28.3951 61.7938 32.9857 57.2238 35.2684L56.4663 35.6446C56.2071 35.774 55.9344 35.8345 55.6617 35.8345L55.6601 35.8328Z" fill="#7CB9CC"/>
<path d="M57.4544 46.5828H56.5067C50.8695 46.5828 45.8029 43.4586 43.2814 38.4279C42.8354 37.5427 43.1989 36.4677 44.086 36.0243C44.9731 35.5875 46.0504 35.942 46.4947 36.8271C48.4052 40.6367 52.2397 43.005 56.5101 43.005H57.4544C58.4458 43.005 59.2504 43.8079 59.2504 44.7973C59.2504 45.7866 58.4458 46.5861 57.4544 46.5861V46.5828Z" fill="#7CB9CC"/>
</svg>
