<svg width="58" height="86" viewBox="0 0 58 86" fill="none" xmlns="http://www.w3.org/2000/svg">
<path d="M44.7939 17.9172H30.4611C25.5195 17.9172 21.5034 13.8961 21.5034 8.95945C21.5034 4.02285 25.5178 0 30.4595 0H44.7922C45.7816 0 46.5845 0.802891 46.5845 1.79223V16.125C46.5845 17.1143 45.7816 17.9172 44.7922 17.9172H44.7939ZM30.4595 3.58277C27.4965 3.58277 25.0845 5.99481 25.0845 8.95777C25.0845 11.9207 27.4965 14.3328 30.4595 14.3328H43.0017V3.58277H30.4595Z" fill="#7CB9CC"/>
<path d="M55.5439 10.75H44.7939C43.8046 10.75 43.0017 9.94711 43.0017 8.95777C43.0017 7.96844 43.8046 7.16555 44.7939 7.16555H55.5439C56.5332 7.16555 57.3361 7.96844 57.3361 8.95777C57.3361 9.94711 56.5332 10.75 55.5439 10.75Z" fill="#7CB9CC"/>
<path d="M34.0439 75.25C29.1023 75.25 25.0861 71.2288 25.0861 66.2922L26.8817 66.0671L28.6706 66.1495C28.6706 69.2569 31.0826 71.6672 34.0456 71.6672C37.0086 71.6672 39.4206 69.2552 39.4206 66.2922C39.4206 65.3214 40.1983 64.411 41.1691 64.3858C42.0006 64.4463 42.953 65.0056 42.9966 65.9798C43 66.0084 43.0034 66.2637 43.0034 66.2922C43.0034 71.2305 38.9872 75.25 34.0456 75.25H34.0439Z" fill="#7CB9CC"/>
<path d="M41.2095 67.8678C40.242 67.8678 39.4508 67.1052 39.4172 66.1327L37.84 16.1804C37.8081 15.1911 38.5858 14.363 39.5751 14.3311C40.5712 14.1917 41.3925 15.0769 41.4245 16.0662L43.0017 66.0184C43.0336 67.0078 42.2559 67.8359 41.2666 67.8644C41.2481 67.8678 41.2279 67.8678 41.2095 67.8678Z" fill="#7CB9CC"/>
<path d="M26.8767 67.8678H26.8196C25.8302 67.8359 25.0525 67.0078 25.0845 66.0184L26.6617 15.7807C26.6936 14.7947 27.4931 14.0002 28.511 14.0455C29.5003 14.0741 30.278 14.9022 30.2461 15.8915L28.6689 66.1327C28.637 67.1002 27.8442 67.8678 26.8767 67.8678Z" fill="#7CB9CC"/>
<path d="M25.0845 86C19.1568 86 14.3345 81.1776 14.3345 75.25V48.375C14.3345 45.412 11.9224 43 8.95945 43C5.99648 43 3.58445 45.412 3.58445 48.375V73.4578C3.58445 74.4471 2.78156 75.25 1.79223 75.25C0.802891 75.25 0 74.4471 0 73.4578V48.375C0 43.4367 4.01613 39.4172 8.95777 39.4172C13.8994 39.4172 17.9155 43.4384 17.9155 48.375V75.25C17.9155 79.2023 21.1305 82.4172 25.0828 82.4172C29.0351 82.4172 32.25 79.2023 32.25 75.25V73.4578C32.25 72.4684 33.0529 71.6656 34.0422 71.6656C35.0316 71.6656 35.8345 72.4684 35.8345 73.4578V75.25C35.8345 81.1776 31.0121 86 25.0845 86Z" fill="#7CB9CC"/>
</svg>
