<svg width="28" height="28" viewBox="0 0 28 28" fill="none" xmlns="http://www.w3.org/2000/svg">
<path d="M8.80544 25.3758C19.3715 25.3758 25.1507 16.6219 25.1507 9.03057C25.1507 8.78193 25.1507 8.53441 25.1339 8.28801C26.2582 7.47479 27.2287 6.46787 28 5.31441C26.9516 5.77921 25.8394 6.08389 24.7005 6.21825C25.8998 5.50038 26.7973 4.37116 27.2261 3.04081C26.0984 3.71002 24.8647 4.1816 23.5782 4.43521C22.7121 3.51421 21.5666 2.90435 20.3189 2.7C19.0712 2.49565 17.791 2.70821 16.6763 3.30477C15.5616 3.90133 14.6746 4.84864 14.1525 6.00011C13.6305 7.15158 13.5025 8.44301 13.7883 9.67457C11.5044 9.56 9.27005 8.96644 7.23036 7.93241C5.19068 6.89839 3.39122 5.44701 1.9488 3.67249C1.21418 4.93715 0.989184 6.43425 1.31962 7.85898C1.65005 9.28371 2.51107 10.5289 3.72736 11.3411C2.8131 11.3143 1.91876 11.0677 1.12 10.6221V10.6949C1.12036 12.0212 1.57949 13.3066 2.41952 14.333C3.25954 15.3594 4.42874 16.0636 5.7288 16.3262C4.88306 16.5569 3.99569 16.5907 3.13488 16.4248C3.50212 17.5662 4.21683 18.5643 5.17911 19.2796C6.14139 19.9949 7.30313 20.3916 8.50192 20.4142C7.31084 21.3505 5.94687 22.0427 4.48802 22.4512C3.02917 22.8598 1.50408 22.9768 0 22.7954C2.62714 24.4812 5.68391 25.3755 8.80544 25.3714" fill="#007EB2"/>
</svg>
