<svg width="92" height="88" viewBox="0 0 92 88" fill="none" xmlns="http://www.w3.org/2000/svg">
<path d="M74.1152 87.673C70.4252 87.673 67.2452 85.113 66.5552 81.573L63.1552 63.943C62.7152 61.703 60.6952 60.073 58.3352 60.073C55.9752 60.073 53.9552 61.703 53.5152 63.943L50.1152 81.573C49.4252 85.113 46.2552 87.673 42.5552 87.673C38.6152 87.673 35.3352 84.803 34.9152 80.983L33.5852 68.913C33.1052 64.543 32.1652 60.223 30.7752 56.043L28.1752 48.183C25.9652 41.493 24.8452 34.543 24.8452 27.523C24.8452 20.993 30.3052 15.673 37.0252 15.673C41.9752 15.673 46.7552 16.863 51.8952 19.303C56.2352 21.363 60.4552 21.363 64.7852 19.303C69.9252 16.863 74.7152 15.673 79.4052 15.673C86.3852 15.673 91.8452 20.993 91.8452 27.523C91.8452 34.543 90.7252 41.503 88.5152 48.193L85.9152 56.053C84.5352 60.223 83.5852 64.553 83.1052 68.923L81.7752 80.993C81.3552 84.803 78.0652 87.683 74.1352 87.683L74.1152 87.673ZM58.3352 57.073C62.1552 57.073 65.4352 59.723 66.1452 63.383L69.5452 81.013C69.9552 83.133 71.8752 84.673 74.1152 84.673C76.4952 84.673 78.4752 82.943 78.7352 80.663L80.0652 68.593C80.5752 64.023 81.5552 59.483 83.0052 55.123L85.6052 47.263C87.7152 40.873 88.7852 34.233 88.7852 27.523C88.7852 22.643 84.6852 18.673 79.6452 18.673C75.1652 18.673 70.8152 19.763 66.0952 22.013C60.9352 24.463 55.7052 24.463 50.5552 22.013C45.8352 19.773 41.4852 18.673 37.2652 18.673C31.9652 18.673 27.8752 22.643 27.8752 27.523C27.8752 34.233 28.9452 40.873 31.0552 47.263L33.6552 55.123C35.1052 59.493 36.0952 64.023 36.5952 68.593L37.9252 80.663C38.1752 82.953 40.1652 84.673 42.5452 84.673C44.7852 84.673 46.6952 83.133 47.1152 81.003L50.5152 63.373C51.2152 59.723 54.5052 57.063 58.3252 57.063L58.3352 57.073Z" fill="#7CB9CC"/>
<path d="M61.2152 50.853C58.8252 52.553 55.5952 52.363 53.5252 50.393L43.2152 40.573C41.9052 39.323 39.8452 39.213 38.3252 40.293C36.8052 41.373 36.2452 43.363 36.9952 45.003L42.9052 57.953C44.0952 60.553 43.2252 63.673 40.8352 65.373C38.2952 67.183 34.8452 66.843 32.8252 64.573L26.4052 57.393C24.0852 54.793 21.4852 52.433 18.6652 50.373L13.3652 46.493C8.86525 43.193 4.93525 39.223 1.70525 34.683C-1.30475 30.463 -0.224753 24.513 4.11525 21.423C7.31525 19.143 10.9452 17.713 15.3852 16.923C19.1352 16.263 21.8552 14.323 23.7052 10.993C25.9052 7.04302 28.4452 4.08302 31.4752 1.92302C35.9752 -1.28698 41.9552 -0.366982 44.9652 3.85302C48.1952 8.38302 50.6752 13.393 52.3252 18.733L54.2652 25.003C55.2952 28.333 56.6752 31.563 58.3752 34.603L63.0752 43.013C64.5553 45.663 63.7552 49.033 61.2152 50.853ZM36.9452 38.353C39.4152 36.593 42.7552 36.793 44.8852 38.833L55.1952 48.643C56.4352 49.823 58.3852 49.933 59.8352 48.903C61.3752 47.813 61.8552 45.783 60.9652 44.193L56.2652 35.783C54.4852 32.603 53.0352 29.213 51.9652 25.733L50.0252 19.463C48.4452 14.373 46.0852 9.58302 42.9952 5.25302C40.7452 2.10302 36.2752 1.42302 33.0252 3.74302C30.1352 5.80302 27.8252 8.51302 25.8152 12.133C23.6152 16.093 20.2352 18.493 15.7852 19.283C11.7052 20.003 8.39525 21.303 5.66525 23.243C2.24525 25.683 1.42525 30.133 3.67525 33.283C6.76525 37.613 10.5152 41.413 14.8152 44.563L20.1152 48.443C23.0552 50.593 25.7852 53.073 28.2152 55.783L34.6352 62.963C35.8552 64.323 37.9252 64.523 39.4652 63.433C40.9052 62.403 41.4352 60.523 40.7252 58.963L34.8152 46.013C33.5852 43.333 34.4852 40.103 36.9552 38.343L36.9452 38.353Z" fill="#7CB9CC"/>
</svg>
