<svg width="67" height="72" viewBox="0 0 67 72" fill="none" xmlns="http://www.w3.org/2000/svg">
<g clip-path="url(#clip0_27_865)">
<path d="M49.28 72C45.59 72 42.41 69.44 41.72 65.9L38.32 48.27C37.88 46.03 35.86 44.4 33.5 44.4C31.14 44.4 29.12 46.03 28.68 48.27L25.28 65.9C24.59 69.44 21.42 72 17.72 72C13.78 72 10.5 69.13 10.08 65.31L8.75 53.24C8.27 48.87 7.33 44.55 5.94 40.37L3.34 32.51C1.12 25.83 0 18.88 0 11.85C0 5.32 5.46 0 12.18 0C17.13 0 21.91 1.19 27.05 3.63C31.39 5.69 35.61 5.69 39.94 3.63C45.08 1.19 49.87 0 54.56 0C61.54 0 67 5.32 67 11.85C67 18.87 65.88 25.83 63.67 32.52L61.07 40.38C59.69 44.55 58.74 48.88 58.26 53.25L56.93 65.32C56.51 69.13 53.22 72.01 49.29 72.01L49.28 72ZM33.5 41.4C37.32 41.4 40.6 44.05 41.31 47.71L44.71 65.34C45.12 67.46 47.04 69 49.28 69C51.66 69 53.64 67.27 53.9 64.99L55.23 52.92C55.74 48.35 56.72 43.81 58.17 39.45L60.77 31.59C62.88 25.2 63.95 18.56 63.95 11.85C63.95 6.97 59.85 3 54.81 3C50.33 3 45.98 4.09 41.26 6.34C36.1 8.79 30.87 8.79 25.72 6.34C21 4.1 16.65 3 12.43 3C7.14 3 3.04 6.97 3.04 11.85C3.04 18.56 4.11 25.2 6.22 31.59L8.82 39.45C10.27 43.82 11.26 48.35 11.76 52.92L13.09 64.99C13.34 67.28 15.33 69 17.71 69C19.95 69 21.86 67.46 22.28 65.33L25.68 47.7C26.38 44.05 29.67 41.39 33.49 41.39L33.5 41.4Z" fill="#7CB9CC"/>
<path d="M60.7702 33.21L58.1702 41.07C56.7202 45.43 55.7402 49.97 55.2302 54.54L53.9002 66.61C53.6402 68.89 51.6602 70.62 49.2802 70.62C47.0402 70.62 45.1202 69.08 44.7102 66.96L41.3102 49.33C40.6002 45.67 37.3202 43.02 33.5002 43.02H33.4902C29.6702 43.01 26.3802 45.67 25.6802 49.32L22.2802 66.95C21.8602 69.08 19.9502 70.62 17.7102 70.62C15.3302 70.62 13.3402 68.9 13.0902 66.61L11.7602 54.54C11.2602 49.97 10.2702 45.44 8.82021 41.07L6.22021 33.21C24.4102 13.55 42.5902 13.55 60.7702 33.21Z" fill="#7CB9CC"/>
</g>
<defs>
<clipPath id="clip0_27_865">
<rect width="67" height="72" fill="white"/>
</clipPath>
</defs>
</svg>
