<svg width="66" height="72" viewBox="0 0 66 72" fill="none" xmlns="http://www.w3.org/2000/svg">
<g clip-path="url(#clip0_27_876)">
<path d="M52.92 0C48.23 0 43.45 1.19 38.3 3.63C35.48 4.97 32.72 5.43 29.94 5.02C29.86 6.03 29.71 7.02 29.51 7.99C29.57 7.99 29.63 8 29.69 8.01C29.64 13.24 27.93 17.44 24.57 20.5C16.44 27.91 1.31 26.58 1.16 26.57V26.63C0.77 26.55 0.38 26.48 0 26.38C0.47 28.45 1.03 30.49 1.69 32.52L4.29 40.38C5.67 44.55 6.62 48.88 7.1 53.25L8.43 65.32C8.85 69.13 12.14 72.01 16.07 72.01C19.77 72.01 22.94 69.44 23.63 65.91L27.03 48.28C27.46 46.04 29.49 44.41 31.85 44.41C34.21 44.41 36.23 46.04 36.67 48.28L40.07 65.91C40.75 69.45 43.93 72.01 47.63 72.01C51.57 72.01 54.85 69.14 55.27 65.32L56.6 53.25C57.08 48.88 58.02 44.56 59.41 40.38L62.01 32.52C64.22 25.83 65.34 18.88 65.34 11.85C65.34 5.32 59.88 0 52.9 0L52.92 0ZM59.13 31.59L56.53 39.45C55.08 43.82 54.09 48.35 53.59 52.92L52.26 64.99C52.01 67.28 50.02 69 47.64 69C45.4 69 43.48 67.46 43.07 65.34L39.67 47.71C38.97 44.05 35.68 41.4 31.86 41.4C28.04 41.4 24.76 44.05 24.05 47.71L20.65 65.34C20.24 67.46 18.32 69.01 16.08 69.01C13.7 69.01 11.72 67.29 11.46 65L10.13 52.93C9.63 48.36 8.64 43.83 7.19 39.46L4.59 31.6C4.38 30.97 4.19 30.33 4 29.7C4.08 29.7 4.14 29.7 4.22 29.7C9.52 29.7 19.87 28.84 26.57 22.75C30.56 19.12 32.61 14.21 32.68 8.15C35 8.04 37.32 7.45 39.63 6.35C44.35 4.11 48.7 3.01 53.18 3.01C58.22 3.01 62.32 6.98 62.32 11.86C62.32 18.57 61.25 25.21 59.14 31.6L59.13 31.59Z" fill="#7CB9CC"/>
</g>
<defs>
<clipPath id="clip0_27_876">
<rect width="65.36" height="72" fill="white"/>
</clipPath>
</defs>
</svg>
