<svg width="87" height="99" viewBox="0 0 87 99" fill="none" xmlns="http://www.w3.org/2000/svg">
<path d="M4.35001 39.5513H10.15V42.4512H4.35001V39.5513Z" fill="#7CB9CC"/>
<path d="M6.22957 33.3326L8.27951 31.2827L12.6259 35.629L10.5759 37.6789L6.22957 33.3326Z" fill="#7CB9CC"/>
<path d="M76.85 39.5513H82.65V42.4512H76.85V39.5513Z" fill="#7CB9CC"/>
<path d="M74.3633 35.631L78.7096 31.2847L80.7596 33.3346L76.4132 37.6808L74.3633 35.631Z" fill="#7CB9CC"/>
<path d="M80.968 45.9891L73.6165 44.7421C73.2341 44.6805 72.8426 44.7747 72.529 45.0031C72.21 45.2296 71.9961 45.574 71.9345 45.9601L66.9465 77.8594C66.1182 83.3638 61.3767 87.4256 55.8105 87.4002H55.564C50.7373 87.3712 46.4671 84.2682 44.95 79.6863C44.6999 78.9251 43.8806 78.5119 43.1194 78.762C42.6826 78.9052 42.3382 79.2495 42.195 79.6863C40.6616 84.319 36.3152 87.4346 31.436 87.4002H31.1315C25.5925 87.4165 20.8691 83.3892 20.01 77.9174L14.8625 46.0181C14.7374 45.2278 13.9961 44.6859 13.2059 44.811C13.1968 44.811 13.1896 44.8128 13.1805 44.8146L6.032 46.0326C2.55925 46.6252 0.0126875 49.6285 0 53.1519V94.65C0 97.0516 1.94844 98.9999 4.35 98.9999H82.65C85.0516 98.9999 87 97.0516 87 94.65V53.1519C87.0072 49.6122 84.4571 46.5835 80.968 45.9891ZM84.1 94.65C84.1 95.4511 83.4511 96.1 82.65 96.1H4.35C3.54887 96.1 2.9 95.4511 2.9 94.65V53.1519C2.86919 51.0059 4.40981 49.159 6.525 48.802L12.2235 47.8305L17.139 78.2799C18.1812 85.1999 24.1334 90.3128 31.1315 90.3001H31.436C36.3569 90.3056 40.9262 87.7518 43.5 83.5578C46.0737 87.7518 50.6431 90.3056 55.564 90.3001H55.8105C62.8068 90.3291 68.7681 85.2252 69.8175 78.3089L74.5735 47.8595L80.475 48.86C82.5902 49.217 84.1308 51.0639 84.1 53.2099V94.65Z" fill="#7CB9CC"/>
<path d="M59.28 72C55.59 72 52.41 69.44 51.72 65.9L48.32 48.27C47.88 46.03 45.86 44.4 43.5 44.4C41.14 44.4 39.12 46.03 38.68 48.27L35.28 65.9C34.59 69.44 31.42 72 27.72 72C23.78 72 20.5 69.13 20.08 65.31L18.75 53.24C18.27 48.87 17.33 44.55 15.94 40.37L13.34 32.51C11.12 25.83 10 18.88 10 11.85C10 5.32 15.46 0 22.18 0C27.13 0 31.91 1.19 37.05 3.63C41.39 5.69 45.61 5.69 49.94 3.63C55.08 1.19 59.87 0 64.56 0C71.54 0 77 5.32 77 11.85C77 18.87 75.88 25.83 73.67 32.52L71.07 40.38C69.69 44.55 68.74 48.88 68.26 53.25L66.93 65.32C66.51 69.13 63.22 72.01 59.29 72.01L59.28 72ZM43.5 41.4C47.32 41.4 50.6 44.05 51.31 47.71L54.71 65.34C55.12 67.46 57.04 69 59.28 69C61.66 69 63.64 67.27 63.9 64.99L65.23 52.92C65.74 48.35 66.72 43.81 68.17 39.45L70.77 31.59C72.88 25.2 73.95 18.56 73.95 11.85C73.95 6.97 69.85 3 64.81 3C60.33 3 55.98 4.09 51.26 6.34C46.1 8.79 40.87 8.79 35.72 6.34C31 4.1 26.65 3 22.43 3C17.14 3 13.04 6.97 13.04 11.85C13.04 18.56 14.11 25.2 16.22 31.59L18.82 39.45C20.27 43.82 21.26 48.35 21.76 52.92L23.09 64.99C23.34 67.28 25.33 69 27.71 69C29.95 69 31.86 67.46 32.28 65.33L35.68 47.7C36.38 44.05 39.67 41.39 43.49 41.39L43.5 41.4Z" fill="#7CB9CC"/>
</svg>
