<svg width="28" height="28" viewBox="0 0 28 28" fill="none" xmlns="http://www.w3.org/2000/svg">
<g clip-path="url(#clip0_2_883)">
<path d="M27.4423 7.21635C27.284 6.62067 26.972 6.07701 26.5376 5.63978C26.1032 5.20256 25.5615 4.8871 24.9669 4.72499C22.7778 4.13635 14.0278 4.13635 14.0278 4.13635C14.0278 4.13635 5.27777 4.13635 3.08868 4.72499C2.49402 4.8871 1.95237 5.20256 1.51794 5.63978C1.08351 6.07701 0.771527 6.62067 0.613226 7.21635C0.0277711 9.41499 0.027771 14 0.027771 14C0.027771 14 0.0277711 18.585 0.613226 20.7836C0.771527 21.3793 1.08351 21.923 1.51794 22.3602C1.95237 22.7974 2.49402 23.1129 3.08868 23.275C5.27777 23.8636 14.0278 23.8636 14.0278 23.8636C14.0278 23.8636 22.7778 23.8636 24.9669 23.275C25.5615 23.1129 26.1032 22.7974 26.5376 22.3602C26.972 21.923 27.284 21.3793 27.4423 20.7836C28.0278 18.585 28.0278 14 28.0278 14C28.0278 14 28.0278 9.41499 27.4423 7.21635Z" fill="#007EB2"/>
<path d="M11.1642 18.1635V9.83667L18.4824 14.0001L11.1642 18.1635Z" fill="#FEFEFE"/>
</g>
<defs>
<clipPath id="clip0_2_883">
<rect width="28" height="28" fill="white"/>
</clipPath>
</defs>
</svg>
