<svg width="28" height="28" viewBox="0 0 28 28" fill="none" xmlns="http://www.w3.org/2000/svg">
<g clip-path="url(#clip0_23_146)">
<path d="M27.4423 7.21623C27.284 6.62055 26.972 6.07689 26.5376 5.63966C26.1032 5.20244 25.5615 4.88698 24.9669 4.72487C22.7778 4.13623 14.0278 4.13623 14.0278 4.13623C14.0278 4.13623 5.27777 4.13623 3.08868 4.72487C2.49402 4.88698 1.95237 5.20244 1.51794 5.63966C1.08351 6.07689 0.771527 6.62055 0.613226 7.21623C0.0277711 9.41487 0.027771 13.9999 0.027771 13.9999C0.027771 13.9999 0.0277711 18.5849 0.613226 20.7835C0.771527 21.3792 1.08351 21.9228 1.51794 22.3601C1.95237 22.7973 2.49402 23.1128 3.08868 23.2749C5.27777 23.8635 14.0278 23.8635 14.0278 23.8635C14.0278 23.8635 22.7778 23.8635 24.9669 23.2749C25.5615 23.1128 26.1032 22.7973 26.5376 22.3601C26.972 21.9228 27.284 21.3792 27.4423 20.7835C28.0278 18.5849 28.0278 13.9999 28.0278 13.9999C28.0278 13.9999 28.0278 9.41487 27.4423 7.21623Z" fill="white"/>
<path d="M11.1642 18.1632V9.83643L18.4824 13.9998L11.1642 18.1632Z" fill="#333333"/>
</g>
<defs>
<clipPath id="clip0_23_146">
<rect width="28" height="28" fill="white"/>
</clipPath>
</defs>
</svg>
